<svg id="Layer_1" data-name="Layer 1" xmlns="http://www.w3.org/2000/svg" width="1920" height="572.56" viewBox="0 0 1920 572.56"><defs><style>.cls-1{fill:#fff;}.cls-2{fill:#f0f6fc;}.cls-3{fill:#314d9b;}</style></defs><path class="cls-1" d="M1577.4,315.94l-2.58-.63-3.66,7.38.08.45a1.11,1.11,0,0,1,0,.17c0,1.67,0,3.33,0,5H1577Q1577.29,322.17,1577.4,315.94Z"/><rect class="cls-1" x="1733.01" y="361.69" width="18.22" height="4.06"/><path class="cls-1" d="M1556.32,322.24v6.05h13.09c0-1,0-2.05,0-3.08v-1.15l-1.13-.2C1564.13,323.12,1560.18,322.58,1556.32,322.24Z"/><path class="cls-1" d="M1754.2,384.41a.87.87,0,0,1,.87.88v44.26h4.09v-3.78a.9.9,0,0,1,.9-.9h4.55V380.11h-12.44v4.3Z"/><path class="cls-1" d="M1733,351.56v8.33h8.85V345.33h-20.63v5.36h10.9A.87.87,0,0,1,1733,351.56Z"/><path class="cls-1" d="M1587.35,395.72l-1.56-88.16h-6.5v1.35c0,6.56-.19,13.1-.47,19.56l4.27,67.25Z"/><rect class="cls-1" x="383.19" y="368.33" width="0.78" height="12.79"/><rect class="cls-1" x="383.19" y="382.81" width="0.78" height="0.06"/><path class="cls-1" d="M1516.28,311.9l1.07,2.16h32.17v4.6h6.8v1.77c3.88.35,7.84.88,12.06,1.62l1,.17,7.28-14.66h-62.19c0,.24,0,.49,0,.73Z"/><rect class="cls-1" x="1480.34" y="372.03" width="8.56" height="3.36"/><path class="cls-1" d="M1465.25,326.06v38.62h15.09v5.55h8.56V364h-11.63a.9.9,0,1,1,0-1.8h11.63v-4.94h-11.63a.9.9,0,1,1,0-1.8h12s0-3.39-.07-4.38l0-1.34h-11.93a.9.9,0,1,1,0-1.8h11.89l-.14-4.68h-11.49a.9.9,0,0,1,0-1.8H1489s-.13-3.21-.17-3.9l-.06-1.29h-11.58a.91.91,0,0,1-.9-.85c-.34-5.42-1.26-11.82-1.63-14.33l-.18-1.15h-19.78v6.13Z"/><path class="cls-1" d="M1511.84,314.06c0-1.71,0-3.43-.06-5.15v-1.35h-5.88l-.13,6.5h6.07Z"/><polygon class="cls-1" points="383.19 364.23 383.19 366.63 383.97 366.63 383.97 359.23 353.4 359.23 353.4 364.23 383.19 364.23"/><rect class="cls-1" x="1760.96" y="426.67" width="7.42" height="2.88"/><path class="cls-1" d="M1879.25,120.33a17.28,17.28,0,0,1-2.9.25,17.58,17.58,0,0,1-5-.75,13.07,13.07,0,1,1-12.84-15.5h.42c0-.43-.05-.86-.05-1.29a17.52,17.52,0,0,1,25.71-15.5,13.44,13.44,0,0,1,24.4,4.7h.38a8.8,8.8,0,0,1,6.53,2.88,10,10,0,0,1,4.15-2.51V1.87H-.55v330H7.73l.53,1.54h9.1v26.75H37.09V269.46l2.71-.53,6.85-.5v-4.59l13.65-2.7v-3.21h3v-6.66H69.1v-3.21h.7V237.93h.53V248h.54v3.21h5.35v6.42h2.14v3.21h7.49v52.44H91.2v62.07H118V276.92H109.4v-10.7h5.35l1.07-7.49h5.35V245.89h1.07v12.84h5.35l1.07,7.49h4.28v10.7h-7.49v46h9.63v-7.49l6.42-1.07h19.27V265.15l6.42-2.14V248L180,244.82h91V373.24h30v-15h7.5v-6.42H353.4v5.69h31.42a.85.85,0,0,1,.85.85v15.93h8.4v-6.42h7.49v-3.21h27.83V337.92h26.75V284.41l11.78-3.21h61v83.48H554.6v10.7h8.57V357.19h15V318.66h52.44v9.63h22.47l4.28,30H713l3.21-17.57h49.23V511.42h3.21v-15h57.79V464.38h18.24l5.84.8v27.51h63.21V462.53h19.73l.53,1.54h9.1v26.75h19.73V400.15l2.71-.53,6.86-.5v-4.58L986,391.83v-3.21h3V382h5.82v-3.21h.7V237.93h.54V378.72h.53v3.21H1002v6.42h2.14v3.21h7.5V444h5.35v62.07h26.75V453.25l17.13.38v-7.49l6.42-1.07h19.26V395.84l6.42-2.14v-15l12.84-3.21h91V503.93h30V358.26h7.49v-6.42h45v31h31v-8.56h9.63v-6.42h7.49v-3.21h27.82V337.92h26.76V284.41l11.77-3.21h61v36.92h20.54a.9.9,0,0,1,.89.76c.34,2,1.32,8.53,1.8,14.33l.11,1.24h11.59a.91.91,0,0,1,.9.86q.16,3.17.28,6.44v.17l0,.17a1.14,1.14,0,0,1,0,.26.88.88,0,0,1,0,.21l0,.17v.19c.16,4.67.26,9.44.31,14.27h8.8l.84-42.27a.88.88,0,0,1,.88-.86H1504l.15-7.42a.89.89,0,0,1,.89-.88h81.67a.9.9,0,0,1,.9.88l1.57,89.08h42.09v-6a.88.88,0,0,1,.88-.87h4.2v-15.8a.87.87,0,0,1,1.74,0v15.8h.64V383.8a.9.9,0,0,1,.61-.84l2.63-57.88h49.23v55.65h3.21v-15h15.13V351.56a.88.88,0,0,1,.88-.87h9v-6.26a.9.9,0,0,1,.9-.9h22.43a.91.91,0,0,1,.9.9v15.46h8.46a.9.9,0,0,1,.9.9v17.52h12.49a.9.9,0,0,1,.9.9v45.66h2V389.32h14.1l4.51.62V411.2h48.85V387.89h15.24l.42,1.19h7v20.68h15.24V339.69l2.1-.41,5.3-.39v-3.54l10.54-2.09v-2.48h2.3v-5.15h4.5v-2.48h.54v-7.83h.41v7.81h.42v2.48H1904v5h1.66v2.48h5.78v40.52h4.14v48H1920V128.09a61.88,61.88,0,0,1-13,1.34C1893.67,129.43,1882.49,125.57,1879.25,120.33Zm-1711,91.34c-1.83,11-20.16,9.55-27.63,8.58-10.8-1.41-21.61-4.68-32.58-3.34-6,.74-11.65,3.71-17.65,4.3-4.21.41-9.88-1.27-10.35-6.27-.81-8.67,7.78-7.07,12.6-5.31,6.34,2.3,14.6,1,18.66-4.47.89-3.84,5.19-6.75,10.37-6.75a12.83,12.83,0,0,1,5.46,1.19c2.66-4,8.8-5.85,13.33-5.64,5.05.24,16,6.87,10.86,13C156.08,205.64,169.82,202.15,168.23,211.67Zm331.89,18.78a13,13,0,0,1-8.81-3.41c-4.94,2.93-13,4.84-22.14,4.84-12.64,0-23.26-3.67-26.34-8.64a16.61,16.61,0,0,1-7.56-.48A12.42,12.42,0,1,1,423.07,208h.4c0-.41-.05-.82-.05-1.23a16.66,16.66,0,0,1,24.44-14.73,12.77,12.77,0,0,1,23.19,4.46h.36a8.37,8.37,0,0,1,6.21,2.74,9.36,9.36,0,0,1,16,6.56s0,.09,0,.13a13.1,13.1,0,1,1,6.48,24.48ZM620.59,125.89c-13.3,0-24.48-3.86-27.72-9.09A17.25,17.25,0,0,1,590,117a17.59,17.59,0,0,1-5.06-.74,13.07,13.07,0,1,1-12.84-15.5h.42c0-.43,0-.86,0-1.3A17.52,17.52,0,0,1,598.16,84a13.44,13.44,0,0,1,24.4,4.7h.38a8.8,8.8,0,0,1,6.53,2.88,9.85,9.85,0,0,1,16.87,6.9c0,.05,0,.1,0,.15a13.77,13.77,0,1,1-2.45,22.16C638.68,123.88,630.18,125.89,620.59,125.89Zm113.2,52.54c-1.83,11-20.16,9.55-27.63,8.57-10.8-1.4-21.61-4.68-32.59-3.33-6,.74-11.64,3.71-17.64,4.29-4.21.41-9.88-1.26-10.35-6.27-.81-8.66,7.78-7.06,12.6-5.31,6.34,2.31,14.6,1,18.65-4.47.9-3.83,5.2-6.74,10.37-6.74a12.73,12.73,0,0,1,5.47,1.19c2.66-4.06,8.8-5.85,13.33-5.64,5,.23,16,6.87,10.85,13C721.64,172.4,735.38,168.91,733.79,178.43Zm364.45-64.65A10.71,10.71,0,0,1,1091,111c-4.06,2.41-10.69,4-18.18,4-10.38,0-19.11-3-21.64-7.1a13.62,13.62,0,0,1-6.2-.39,10.2,10.2,0,1,1-10-12.1h.32c0-.34,0-.67,0-1a13.69,13.69,0,0,1,20.07-12.1,10.49,10.49,0,0,1,19,3.67h.29a6.89,6.89,0,0,1,5.1,2.25,7.69,7.69,0,0,1,13.17,5.39s0,.07,0,.11a10.76,10.76,0,1,1,5.32,20.1Zm297.39-39.5a13.75,13.75,0,0,1-9.28-3.59c-5.2,3.08-13.69,5.09-23.29,5.09-13.29,0-24.47-3.85-27.71-9.09a17.28,17.28,0,0,1-2.9.25,17.58,17.58,0,0,1-5-.75,13.07,13.07,0,1,1-12.84-15.5h.42c0-.43,0-.86,0-1.29a17.52,17.52,0,0,1,25.71-15.5,13.44,13.44,0,0,1,24.4,4.7h.38a8.82,8.82,0,0,1,6.53,2.88,9.84,9.84,0,0,1,16.86,6.91v.14a13.78,13.78,0,1,1,6.82,25.75Zm203,219.22a5.52,5.52,0,0,1-.92.08,5.68,5.68,0,0,1-1.6-.24,4.14,4.14,0,1,1-4.06-4.91h.13c0-.14,0-.27,0-.41a5.55,5.55,0,0,1,8.14-4.91,4.25,4.25,0,0,1,7.72,1.49h.12a2.79,2.79,0,0,1,2.07.91,3.12,3.12,0,0,1,5.34,2.18v.05a4.36,4.36,0,1,1-.78,7,15.28,15.28,0,0,1-7.37,1.61C1603.23,296.38,1599.69,295.16,1598.66,293.5Zm38.72,21.14a4.37,4.37,0,0,1-2.94-1.13,15.2,15.2,0,0,1-7.37,1.61c-4.21,0-7.75-1.22-8.78-2.88a5.52,5.52,0,0,1-.92.08,5.68,5.68,0,0,1-1.6-.23,4.14,4.14,0,1,1-4.06-4.91h.13c0-.14,0-.27,0-.41a5.56,5.56,0,0,1,8.15-4.91,4.26,4.26,0,0,1,7.72,1.49h.12a2.79,2.79,0,0,1,2.07.91,3.12,3.12,0,0,1,5.34,2.19v0a4.36,4.36,0,1,1,2.16,8.15Z"/><path class="cls-2" d="M1465.25,364.68v17.86l.15.67c1.83,8.37,3.66,17.71,5.46,27.92l.24,1.35,1.35-.24.16,0h14.72l.1-1.25c.08-1,.17-2,.24-3l.11-1.47h-12.59a.9.9,0,1,1,0-1.8h12.72l.09-1.27c.09-1.34.18-2.69.26-4l.09-1.44h-14.7a.9.9,0,0,1-.9-.9.86.86,0,0,1,.17-.5.87.87,0,0,1,.73-.4h14.8l.06-1.29c.08-1.52.16-3,.23-4.56l.06-1.43h-14.64a.9.9,0,1,1,0-1.8h14.71l.05-1.31.12-3.26,0-1.4h-13.62a.9.9,0,1,1,0-1.8h13.67l0-1.33c0-1.52.07-3,.1-4.56l0-1.38h-.38v3.35h-8.56V372h-3.07a.9.9,0,1,1,0-1.8h3.07v-5.55Z"/><path class="cls-2" d="M1471.12,492.48l2.15-.25,5.06-.61,0-1.24-.12-3.75-.06-1.48-.32,0-2.25.28-10.3,1.29v6.42Z"/><path class="cls-2" d="M1449.45,358.39l-1.06-4.49a83.2,83.2,0,0,0-12.38,3.75l-1,.41.19,1.09c.17,1,.33,2,.5,3a85.12,85.12,0,0,1,12.44-3.5Z"/><path class="cls-2" d="M1477.64,475.57l-.1-1.55c-.08-1.37-.17-2.73-.27-4.1l-.12-1.6-11.9,2.86v6.19Z"/><path class="cls-2" d="M1476.59,447.45c.42,3,.85,6,1.27,9.15l2.67.17q1.11-4.29,2.1-9.24l.32-1.63h-6.58Z"/><path class="cls-2" d="M1476.9,483.48l1.16-.14-.06-1.26a1.09,1.09,0,0,1,0-.18l-.12-2.2-.12-2.32-12.5,1.81v5.75Z"/><path class="cls-2" d="M1465.84,502l2-.12,10.62-.63V500c0-1.67,0-3.35,0-5.05l0-1.51-6.28.75-2.12.25-4.73.57v7.06Z"/><path class="cls-2" d="M1475.94,442.93l.17,1.17h7.17l.2-1.13c.28-1.57.55-3.18.8-4.83l.25-1.57H1475Z"/><polygon class="cls-2" points="1445.61 319.93 1447.06 326.06 1447.79 326.06 1454.65 326.06 1454.65 319.93 1449.6 319.93 1447.89 319.93 1445.61 319.93"/><path class="cls-2" d="M1477,466.5s-.27-3.34-.34-4.09l-.14-1.61-11.27,3v5.55Z"/><polygon class="cls-2" points="1489.35 362.19 1489.33 357.25 1488.9 357.25 1488.9 362.19 1489.35 362.19"/><path class="cls-2" d="M1474.72,434.77h10.07l.17-1.17c.11-.83.23-1.65.34-2.49l.2-1.54h-11.58Z"/><path class="cls-2" d="M1471.36,414l1.14,6.73h0l1.14,7h12.08l.15-1.2c.14-1.16.27-2.34.4-3.52l.17-1.52h-11.55a.93.93,0,0,1-.24,0l-1.59-.54,1.33-1a1.16,1.16,0,0,1,.24-.14.89.89,0,0,1,.3-.06h11.69l.13-1.22c.08-.88.17-1.76.25-2.64l0-.37.14-1.48h-15.81Z"/><path class="cls-2" d="M1489.31,370.23v-1.35l0-3.52V364h-.45v6.24Z"/><polygon class="cls-2" points="1465.41 392.14 1465.25 391.35 1465.25 392.18 1465.41 392.14"/><path class="cls-2" d="M1475.5,541.47l.18-1.16c.1-.61.19-1.23.28-1.85l.3-2.07-11-.06v5.08Z"/><path class="cls-2" d="M1474.46,547.13l.22-1.09.21-1.17.3-1.61-9.94,0v3.92Z"/><path class="cls-2" d="M1477.37,526.56l.1-1.26c.09-1,.16-2.09.24-3.14l.13-2-12.59.53v5.78Z"/><path class="cls-2" d="M1476.49,534.59l.16-1.34c.14-1.12.28-2.25.4-3.4l.15-1.49-12-.07v6.24Z"/><path class="cls-2" d="M1643.93,382.9V366.6a.9.9,0,0,1,1.8,0v16.3h4.33a.91.91,0,0,1,.9.9v9.82h5.85a.9.9,0,0,1,.9.91v11l.74.38a30,30,0,0,1,0,53.43l-.74.38V514h31.52V385.29a.87.87,0,0,1,.88-.88h8.4v-5.2a.9.9,0,0,1,.9-.9h1.18V367.42a.87.87,0,0,1,.87-.87h8v-.8h-15.13v15h-3.21V325.08h-49.23L1639.31,383a.88.88,0,0,1,.29-.06Zm39.7,61a30.87,30.87,0,0,0,1-8.15.85.85,0,0,1,.25-.64.89.89,0,0,1,.63-.27h0a.9.9,0,0,1,.92.88,32.31,32.31,0,0,1-1,8.63.91.91,0,0,1-.87.68.85.85,0,0,1-.23,0A.91.91,0,0,1,1683.63,443.92Zm-8,13.24c.63-.54,1.25-1.11,1.83-1.7a.91.91,0,0,1,.64-.27,1,1,0,0,1,.64.26.91.91,0,0,1,0,1.28c-.62.62-1.27,1.22-1.94,1.8a.94.94,0,0,1-.59.21.89.89,0,0,1-.68-.31A.9.9,0,0,1,1675.65,457.16Z"/><path class="cls-2" d="M1478,518.38l.1-1.9c.06-1,.11-2.06.15-3.1l.06-1.47-13,.46v6.54Z"/><path class="cls-2" d="M1478.3,510.11l0-1.28c0-1.42.05-2.85.07-4.28l0-1.46-11.57.68-1.61.09v6.71Z"/><polygon class="cls-2" points="1472.86 434.53 1471.81 427.84 1465.25 429.57 1465.25 436.54 1472.86 434.53"/><polygon class="cls-2" points="1474.02 442.27 1473.13 436.32 1465.25 438.4 1465.25 444.59 1474.02 442.27"/><path class="cls-2" d="M1467,400.35l-.24-1.25c-.25-1.29-.5-2.55-.74-3.77l-.28-1.42-.52.13v6.78Z"/><rect class="cls-2" x="1742.09" y="380.11" width="10.08" height="4.3"/><polygon class="cls-2" points="1475.34 451.46 1474.28 444.07 1465.25 446.45 1465.25 454.12 1475.34 451.46"/><path class="cls-2" d="M1468.77,409.77l-.23-1.24c-.3-1.7-.61-3.36-.91-5l-.26-1.44-2.12.56v8Z"/><path class="cls-2" d="M1470.3,418.59l-.21-1.23q-.37-2.22-.75-4.35l-.26-1.46-3.83,1v7.36Z"/><polygon class="cls-2" points="1471.53 426.05 1470.6 420.37 1465.25 421.78 1465.25 427.71 1471.53 426.05"/><polygon class="cls-2" points="1476.37 458.98 1475.59 453.26 1465.25 455.99 1465.25 461.91 1476.37 458.98"/><path class="cls-2" d="M1642.26,388.86a.87.87,0,0,1,.87.87v3.51h6V384.7h-8.66v4.16Z"/><path class="cls-2" d="M1578.67,554.28c-8-1.1-14-7.59-14-15.09a14.46,14.46,0,0,1,3-8.86l.88-1.14-1.19-.81a10.48,10.48,0,0,1-4.74-8.73c0-6,5.2-10.81,11.59-10.81a12.08,12.08,0,0,1,7.1,2.29,10.87,10.87,0,0,1,2.32,2.22l.3.4.34.33.84-.25c.34-.1.71-.17,1.06-.25s.47-.12.71-.16c.41-.07.82-.12,1.24-.15l1.26-.11-1.59-90.43,0-2.45-.43-24.56h-4.27l-4.27-67.25c-1.1,25.51-4.08,49.75-8.52,68.51-.36,1.53-.74,3.08-1.15,4.65l-.51,1.9c-4,14.58-10.19,29.82-19.11,33.43v135.6h30.32V554.44Z"/><path class="cls-2" d="M1571.22,328.29c-.32,23.37-2.87,45.19-7.26,61.88-.45,1.71-.92,3.32-1.4,4.88-.19.62-.38,1.24-.57,1.84-3.56,10.89-7.84,17.88-12.47,20.44V435c6.64-3.26,12.75-14.63,17.64-32.94.17-.63.33-1.26.5-1.91.3-1.17.59-2.36.88-3.58,4.45-18.82,7.4-42.71,8.49-68.28Z"/><path class="cls-2" d="M1556.32,322.24c-2.29-.21-4.54-.34-6.8-.42v8.89a12.25,12.25,0,0,1,2.55,1.59l.47.38.45-.39a26.27,26.27,0,0,1,3.86-2.53.47.47,0,0,1,.64.18.46.46,0,0,1,0,.36.48.48,0,0,1-.23.29c-3.07,1.73-4,2.61-4.18,2.91l-.05.05,0,.07a.5.5,0,0,1-.3.25h-.13a.47.47,0,0,1-.32-.12,12.66,12.66,0,0,0-2.78-2v83.55c4.15-2.77,8-9.76,11.09-19.8.19-.6.38-1.22.56-1.85,4.76-16.12,7.89-39.39,8.24-65.37h-13.09Z"/><path class="cls-2" d="M1588.22,552.92a16.89,16.89,0,0,1-5.35,1.45l-1.23.13v18.06h8.83l-.36-20.5Z"/><path class="cls-2" d="M1549.52,318.66V320c2.26.07,4.51.21,6.8.41v-1.77Z"/><path class="cls-2" d="M1648.81,399.26a.87.87,0,0,1,.87.87v2.93a30.08,30.08,0,0,1,4.45,1.09l1.78.58v-9.3h-12.78v3.83Z"/><rect class="cls-2" x="1700.31" y="380.11" width="0.28" height="4.3"/><path class="cls-2" d="M1655.91,488.41v-27.8l-1.78.58c-.4.13-.8.23-1.2.34a27.45,27.45,0,0,1-2.53,1.48l-.72.37v52.55h6.23V488.41Z"/><polygon class="cls-2" points="1672.72 515.93 1689.23 515.93 1689.23 515.77 1683.27 515.77 1680.86 515.77 1657.71 515.77 1657.71 515.93 1670.38 515.93 1672.72 515.93"/><path class="cls-2" d="M1617.81,553l6.89-6.1V463.38L1624,463a29.06,29.06,0,0,1-.21-51.69c.31-.3.61-.59.93-.88V400.13a.87.87,0,0,1,.87-.87h5.67v-3.54h-42.09l.47,26.39,0,2.45,1.57,88.72,1.08.21a13.57,13.57,0,0,1,11,10.46,12.13,12.13,0,0,1-.43,6.3,12,12,0,0,1-.71,1.7,13.33,13.33,0,0,1-4.18,4.84l-.63.45.07.77c0,.4,0,.79,0,1.18a14.68,14.68,0,0,1-5.12,11.06l-.47.41.38,21.9h3.48l20.82-18.45Zm-8.75-136.6a32.13,32.13,0,0,1,3.93-7.75.9.9,0,0,1,.75-.39.88.88,0,0,1,.51.16.9.9,0,0,1,.22,1.25,30.75,30.75,0,0,0-3.71,7.32.89.89,0,0,1-.85.6.71.71,0,0,1-.29-.05.91.91,0,0,1-.52-.46A.89.89,0,0,1,1609.06,416.41Zm4.43,39.34a.84.84,0,0,1-.38.57.89.89,0,0,1-.5.15.91.91,0,0,1-.75-.4,41,41,0,0,1-6.16-15.47c-.17-.93-.31-1.87-.41-2.81a41.55,41.55,0,0,1,.41-11.5.91.91,0,0,1,.89-.75l.16,0a.9.9,0,0,1,.73,1,39.29,39.29,0,0,0-.08,13.29c.17,1,.38,2,.63,3a39.26,39.26,0,0,0,5.33,12.15A.84.84,0,0,1,1613.49,455.75Z"/><path class="cls-2" d="M1595.68,539.19a12.34,12.34,0,0,0-.21-2.26.9.9,0,0,1,.44-.94,11.65,11.65,0,0,0,4.94-5.37,10.28,10.28,0,0,0,.6-1.8,10.57,10.57,0,0,0,.1-4.52,11.66,11.66,0,0,0-8.53-8.8,13.08,13.08,0,0,0-3.53-.49,12.79,12.79,0,0,0-1.52.09l-.17,0h0l-.54.07a14.71,14.71,0,0,0-1.46.34,13.1,13.1,0,0,0-1.56.56.94.94,0,0,1-.36.08.89.89,0,0,1-.8-.48,10,10,0,0,0-8.79-5.05c-5.4,0-9.79,4-9.79,9a9,9,0,0,0,6.15,8.37.89.89,0,0,1,.29,1.51,12.89,12.89,0,0,0-4.42,9.66c0,7.43,6.55,13.48,14.6,13.48a15.35,15.35,0,0,0,8.35-2.44,14,14,0,0,0,4.93-5.46A12.57,12.57,0,0,0,1595.68,539.19Zm-3.9-1.13-.61.44.06.75a10.87,10.87,0,0,1,0,1.14,13.9,13.9,0,0,1-2.81,8.38V516.08a12.94,12.94,0,0,1,8.47,9.53,11.83,11.83,0,0,1-.42,6.11,12.38,12.38,0,0,1-.69,1.64A12.91,12.91,0,0,1,1591.78,538.06Z"/><path class="cls-2" d="M1733,365.75v.8h8.21a.87.87,0,0,1,.87.87v10.89h9.13V365.75Z"/><path class="cls-2" d="M1673,432.67a28.1,28.1,0,0,0-13.23-23.89c-.77-.48-1.57-.93-2.38-1.34s-1.57-.74-2.38-1.05a27.91,27.91,0,0,0-5.36-1.5v5.95l.72.37a29,29,0,0,1,7.23,46.57c.73-.37,1.47-.79,2.17-1.23A28.09,28.09,0,0,0,1673,432.67Z"/><path class="cls-2" d="M1497.76,464.79l.58-28.92.05-2.29,1.53-76.39h-8.8c.17,19.59-.63,40-2.31,58.2-.07.79-.14,1.58-.22,2.36-.34,3.54-.72,7-1.13,10.32l0,.21,0,.21a1.1,1.1,0,0,1,0,.18.84.84,0,0,1-.09.37l-.09.2,0,.21c-2.1,16.49-4.84,29.16-8.16,37.65h0a.32.32,0,0,0-.08.1l-.2.37,0,.41c.3,3.95.54,7.82.74,11.64,0,.91.1,1.82.14,2.71a355.93,355.93,0,0,1-.07,36.6V519l0,.21a.67.67,0,0,1,0,.18l0,.1v.11c-.16,2.79-.33,5.07-.52,7.18l0,.22.05.21a.87.87,0,0,1-.05.59l-.1.21,0,.23a180,180,0,0,1-2.92,19.94.89.89,0,0,1-.88.71h-9.94v.91H1420a.87.87,0,0,1-.08-1.74s0,0,0-.07a.9.9,0,0,1,.9-.9H1430l0-.06c1.11-4.83,2.16-9.71,3.12-14.5l.13-.67-.46-.49c-.72-.77-1.53-1.6-2.39-2.49-2.66-2.75-5.63-5.81-7.09-8.14a.92.92,0,0,1-.07-.79c9.66-24.14,15-85.05,15.4-101.1a.88.88,0,0,1,.23-.58l.42-.44-.06-.59c-1.77-18.77-4.59-36.51-7.37-52.88a.87.87,0,0,1,.52-.95c.51-.22,1-.43,1.54-.63q-.43-2.6-.87-5.15a.9.9,0,0,1,.53-1,82.36,82.36,0,0,1,14.36-4.55l-5.89-25a.86.86,0,0,1,.17-.74.85.85,0,0,1,.68-.33h2.27l-1.61-6.83a.91.91,0,0,1,.88-1.11h10.17V281.2h-61l-11.77,3.21v53.51h-26.76v26.76H1327.3v3.21h-7.49v6.42h-9.63v8.56h-31v-31h-45v6.42h-7.49V503.93h-30V375.51h-91l-12.84,3.21v15l-6.42,2.14v49.23h-19.26l-6.42,1.07v7.49l-17.13-.38v52.82h-26.75V444h-5.35V391.56h-7.5v-3.21H1002v-6.42H996.6v-3.21h-.53V237.93h-.54V378.75h-.7V382H989v6.66h-3v3.21l-13.64,2.71v4.58l-6.86.5-2.71.53v90.67H943.09V464.07H934l-.53-1.54H913.73v30.16H850.52V465.18l-5.84-.8H826.44V572.56h592.63V555.75a.86.86,0,0,1,.82-.86.9.9,0,0,1,.87-.76H1476a.9.9,0,0,1,.9.9v17.53h18.74l2.11-105.49Z"/><rect class="cls-2" x="1474.35" y="555.93" width="0.72" height="16.62"/><path class="cls-2" d="M1908.78,553.92a15.08,15.08,0,0,0-2.81.3h-.17a.91.91,0,0,1-.78-.44,14.58,14.58,0,0,0-5.69-5.55,13,13,0,0,0-5-1.52q-.61-.06-1.23-.06a13,13,0,0,0-6.13,1.53,14.25,14.25,0,0,0-4.72,4,14,14,0,0,0-1.26,2c-.1.17-.2.33-.29.51a16.09,16.09,0,0,0-1,2.47,16.61,16.61,0,0,0-.44,7.77,16.18,16.18,0,0,0,1.17,3.75.91.91,0,0,1-.39,1.16,10.93,10.93,0,0,0-2,1.35l-1.58,1.38H1920V558.42a16,16,0,0,0-11-4.5Z"/><path class="cls-2" d="M1877.62,569.23l.79-.59-.31-.93a17.19,17.19,0,0,1-.63-2.47,18,18,0,0,1,.18-7.38l.12-.51.27-1.16h-7.26a.9.9,0,0,1,0-1.8h7.54l1-1a16.45,16.45,0,0,1,6.71-6.72,15.32,15.32,0,0,1,3.83-1.41l.08,0a14.89,14.89,0,0,1,3-.31c.36,0,.72,0,1.08,0l1.46.11V426.67H1768.38v2.88h78.7v14.74h38.06a.9.9,0,0,1,0,1.8h-38.06v16h13.34a.9.9,0,0,1,0,1.8h-13.34v17.58h13.34a.9.9,0,0,1,0,1.8h-13.34v15.86h13.34a.9.9,0,0,1,0,1.8h-13.34v16.43h13.34a.9.9,0,0,1,0,1.8h-13.34v16.43h13.34a.9.9,0,0,1,0,1.8h-13.34v17h13.34a.9.9,0,0,1,0,1.8h-13.34v16.37h27.44A13.35,13.35,0,0,1,1877.62,569.23Zm-6.84-107.15h14.36a.9.9,0,0,1,0,1.8h-14.36a.9.9,0,1,1,0-1.8Zm0,19.38h14.36a.9.9,0,0,1,0,1.8h-14.36a.9.9,0,1,1,0-1.8Zm0,17.66h14.36a.9.9,0,0,1,0,1.8h-14.36a.9.9,0,1,1,0-1.8Zm0,18.23h14.36a.9.9,0,0,1,0,1.8h-14.36a.9.9,0,1,1,0-1.8Zm0,18.23h14.36a.9.9,0,0,1,.39,1.71.86.86,0,0,1-.39.09h-14.36a.9.9,0,1,1,0-1.8Z"/><path class="cls-2" d="M1915.59,373.57h-4.14V333.05h-5.78v-2.48H1904v-5h-4.13v-2.48h-.42v-7.81h-.41v7.83h-.54v2.48H1894v5.15h-2.3v2.48l-10.54,2.09v3.54l-5.3.39-2.1.41v70.07h-15.24V389.08h-7l-.42-1.19h-15.24V411.2H1787V389.94l-4.51-.62h-14.1v35.55h128a.9.9,0,0,1,.9.9V545.48l.89.33a16.14,16.14,0,0,1,7.57,5.85l.47.66.8-.09a16.34,16.34,0,0,1,1.7-.11h.2a17.64,17.64,0,0,1,11,3.92V421.54h-4.41Z"/><path class="cls-2" d="M278.34,551.37a.85.85,0,0,1,0-1.7h3.54V537.25h-3.54a.85.85,0,0,1,0-1.7h3.54V523.12h-3.54a.85.85,0,0,1,0-1.69h3.54v-12h-3.54a.85.85,0,0,1,0-1.7h3.54V495.26h-3.54a.85.85,0,0,1,0-1.7h3.54v-13h-3.54a.85.85,0,0,1,0-1.7h3.54v-9.25l-4.39-3h-6.58V572.56h11V551.37Z"/><rect class="cls-2" x="264.31" y="480.57" width="4.9" height="12.99"/><rect class="cls-2" x="312.1" y="415.51" width="6.02" height="3.29"/><rect class="cls-2" x="304.98" y="415.51" width="5.48" height="3.29"/><path class="cls-2" d="M215,440.77c-2-6.08-6.1-10.14-10.68-10.14-5.68,0-10.62,6.24-11.75,14.84l-.19,1.45h20.38A23.51,23.51,0,0,1,215,440.77Z"/><rect class="cls-2" x="264.31" y="466.63" width="4.9" height="12.24"/><path class="cls-2" d="M383.19,424.15v13.62h12.3a.85.85,0,1,1,0,1.69h-12.3v17h12.3a.85.85,0,1,1,0,1.7h-12.3v17h12.3a.85.85,0,1,1,0,1.7h-12.3v17h12.3a.85.85,0,1,1,0,1.69h-12.3v17h12.3a.85.85,0,1,1,0,1.7h-12.3v17h12.3a.85.85,0,1,1,0,1.7h-12.3v17h12.3a.85.85,0,1,1,0,1.69h-12.3v3.17c.31.17.62.36.93.56a19.09,19.09,0,0,1,2,1.49c.46.41.85.78,1.19,1.15a19.35,19.35,0,0,1,5.27,13.2v1.37h13.08V424.15Z"/><rect class="cls-2" x="319.77" y="415.51" width="4.93" height="3.29"/><rect class="cls-2" x="298.41" y="415.51" width="4.93" height="3.29"/><rect class="cls-2" x="264.31" y="509.38" width="4.9" height="12.05"/><path class="cls-2" d="M282.43,419.62a.82.82,0,0,1,.82-.82h13.52v-3.29h-31.9v7.86a.84.84,0,0,1-.42.73l-7.58,4.4h24l1.57-.91Z"/><rect class="cls-2" x="264.31" y="495.26" width="4.9" height="12.43"/><rect class="cls-2" x="326.35" y="415.51" width="3.49" height="3.29"/><path class="cls-2" d="M211.2,451.72a.8.8,0,0,1,.41-.7l.54-.32.06-.63c0-.49.11-1,.18-1.45h-21v8.43H211.2Z"/><rect class="cls-2" x="264.31" y="537.25" width="4.9" height="12.43"/><rect class="cls-2" x="383.19" y="382.87" width="0.78" height="39.58"/><path class="cls-2" d="M272.46,462.86a1,1,0,0,1,0-.2V460h-4.67l2.77,4.94H275l-2.21-1.51A.84.84,0,0,1,272.46,462.86Z"/><rect class="cls-2" x="254.56" y="430.2" width="11.07" height="27.96"/><path class="cls-2" d="M272.43,433.94v-.11s0-.07,0-.1a.84.84,0,0,1,.05-.18.92.92,0,0,1,.07-.13l.09-.12.11-.1.16-.11,5-2.89h-10.6v28h5.1Z"/><path class="cls-2" d="M331.82,413a.82.82,0,1,1,1.64,0v5.84H339v-36H323.17v31h1.53V413a.83.83,0,0,1,1.65,0v.85h4.33a.86.86,0,0,1,.85.85v4.14h.29Z"/><path class="cls-2" d="M253.24,459.85a.84.84,0,0,1-.34-.59,1.11,1.11,0,0,1,0-.21V429.32a.52.52,0,0,1,0-.11.69.69,0,0,1,0-.19l.08-.13.09-.12.12-.1.16-.11,9.8-5.68v-8.22a.86.86,0,0,1,.85-.85H278v-6a.85.85,0,1,1,1.69,0v6h5.08v-6a.85.85,0,1,1,1.7,0v6h5.65v-6a.85.85,0,1,1,1.69,0v6h3V413a.82.82,0,1,1,1.64,0v.85H300v-6a.85.85,0,1,1,1.69,0v6h1.65V413a.82.82,0,0,1,1.64,0v.85h1.8v-6a.85.85,0,1,1,1.69,0v6h2V413a.82.82,0,1,1,1.64,0v.85h2v-6a.85.85,0,0,1,1.7,0v6h2.31V413a.82.82,0,0,1,1.64,0v.85h1.71V358.38a.85.85,0,0,1,.85-.85H353.4v-5.69H308.46v6.42H301v15H271V244.82H180L167.19,248v15l-6.42,2.14v49.23H141.5l-6.42,1.07v7.49h-9.63v-46h7.49v-10.7h-4.28l-1.07-7.49h-5.35V245.89h-1.07v12.84h-5.35l-1.07,7.49H109.4v10.7H118v98.46H91.2V313.31H85.85V260.87H78.36v-3.21H76.22v-6.42H70.87V248h-.54v-10.1H69.8v10.13h-.7v3.21H63.28v6.66h-3v3.21l-13.65,2.7v4.59l-6.85.5-2.71.53v90.67H17.36V333.38H8.26l-.53-1.54H-.55V536.92H76.1V513.64a.85.85,0,0,1,.85-.84h5.19v-12a.85.85,0,0,1,.84-.85h41.65V470.27a.85.85,0,0,1,.85-.84h2.44V455.32a.85.85,0,0,1,.85-.85h4.54V433.94a.23.23,0,1,1,.45,0v20.53h4.54a.85.85,0,0,1,.85.85v6.36h12.14V459a.83.83,0,0,1,.83-.82h4.4V438.31a.22.22,0,0,1,.22-.22.21.21,0,0,1,.21.22v19.91h4.41a.82.82,0,0,1,.82.82v6.17h3V572.56h4.67V468a.85.85,0,0,1,.85-.84h9.1V457.9a.85.85,0,0,1,.85-.85h9.1v-9.28a.86.86,0,0,1,.42-.73l.56-.33.06-.64A24.56,24.56,0,0,1,194.49,435a12.69,12.69,0,0,1,7.73-5.77l1-.22V407.48a.85.85,0,0,1,1.69,0v21.44l1.06.19c3.1.55,5.89,2.58,8.06,5.84a20.93,20.93,0,0,1,2,4,12.21,12.21,0,0,1,7.23-5.23l1-.21V412.66a.82.82,0,1,1,1.64,0v20.78l1,.18c3,.55,5.71,2.51,7.82,5.67a23.79,23.79,0,0,1,3.65,11.06l0,.46.33.32a.83.83,0,0,1,.25.59v9h.47v6.63a.83.83,0,0,1,.37.68V572.56h22.7V466.23Zm-110.5-44.39a6.87,6.87,0,0,1-4.67-1.81c-2.62,1.56-6.9,2.57-11.73,2.57-6.71,0-12.34-2-14-4.58a8.81,8.81,0,0,1-1.46.12,8.93,8.93,0,0,1-2.55-.37,6.58,6.58,0,1,1-6.47-7.82h.21c0-.22,0-.43,0-.65a8.84,8.84,0,0,1,13-7.81,6.77,6.77,0,0,1,12.29,2.37h.19a4.43,4.43,0,0,1,3.29,1.45,5,5,0,0,1,8.5,3.48v.08a6.86,6.86,0,0,1,3.43-.91,6.94,6.94,0,0,1,0,13.88Z"/><path class="cls-2" d="M202.38,460.72h8.82v-2H181.46v8.44h20.1v-5.65A.82.82,0,0,1,202.38,460.72Z"/><rect class="cls-2" x="264.31" y="523.12" width="4.9" height="12.43"/><path class="cls-2" d="M388,561.64a17.06,17.06,0,0,0-1.95-2.48l-.25-.24-.11-.1a16.45,16.45,0,0,0-2.31-1.92l-.22-.13v15.79h7.68v-1.35A17.94,17.94,0,0,0,388,561.64Z"/><rect class="cls-2" x="264.31" y="551.37" width="4.9" height="21.19"/><polygon class="cls-2" points="265.81 460 256.47 460 263.72 464.94 268.59 464.94 265.81 460"/><path class="cls-2" d="M83.83,501.6v10.9H106.9v-9.41a.83.83,0,0,1,.82-.83h16.69v-.66Z"/><path class="cls-2" d="M101.05,515.59a.82.82,0,0,1,.83-.82h5v-.28H77.8v22.43h5.33a.86.86,0,0,1,.85.85v.38h17.07Zm-8.2,17.67a7.05,7.05,0,0,1-.89.06,6.79,6.79,0,0,1-.89-.06v-8.35a7,7,0,0,1,.89,0,7.28,7.28,0,0,1,.89,0Z"/><rect class="cls-2" x="129.62" y="456.17" width="7.84" height="5.51"/><path class="cls-2" d="M13.72,539a.87.87,0,0,1,.09-.36H-.55v9.82H13.72Z"/><rect class="cls-2" x="-0.55" y="561.86" width="14.27" height="10.7"/><rect class="cls-2" x="129.62" y="463.37" width="21.68" height="6.01"/><rect class="cls-2" x="-0.55" y="550.14" width="14.27" height="10.02"/><path class="cls-2" d="M148.1,501H131.56a.23.23,0,1,1,0-.45H148.1V486.41H131.56a.23.23,0,1,1,0-.45H148.1V473.54a.83.83,0,0,1,.83-.82h2.36v-1.6h-25v31.14H148.1Z"/><path class="cls-2" d="M339,365.05a.83.83,0,0,1,.83-.82H353.4v-5H323.17v7.4H339Z"/><path class="cls-2" d="M192.73,470.55h8.83v-1.67H171.51V572.56h20.4V471.37A.82.82,0,0,1,192.73,470.55Zm-4,89.95h-8.14a.85.85,0,0,1,0-1.7h8.14a.85.85,0,0,1,0,1.7Zm0-10.09h-8.14a.85.85,0,0,1,0-1.7h8.14a.85.85,0,1,1,0,1.7Zm0-10.09h-8.14a.85.85,0,1,1,0-1.7h8.14a.85.85,0,0,1,0,1.7Zm0-10.09h-8.14a.85.85,0,0,1,0-1.7h8.14a.85.85,0,0,1,0,1.7Zm0-10.09h-8.14a.85.85,0,0,1,0-1.7h8.14a.85.85,0,1,1,0,1.7Zm0-10.09h-8.14a.85.85,0,0,1,0-1.7h8.14a.85.85,0,1,1,0,1.7Zm0-10.09h-8.14a.85.85,0,1,1,0-1.7h8.14a.85.85,0,0,1,0,1.7Zm0-10.09h-8.14a.85.85,0,0,1,0-1.7h8.14a.85.85,0,1,1,0,1.7Zm0-10.09h-8.14a.85.85,0,1,1,0-1.7h8.14a.85.85,0,0,1,0,1.7Z"/><rect class="cls-2" x="323.17" y="368.33" width="15.78" height="12.79"/><path class="cls-2" d="M768.65,496.44v15h-3.21V340.68H716.21L713,358.25H657.34l-4.28-30H630.59v-9.63H578.15v38.53h-15v18.19H554.6v-10.7H528.92V281.2h-61l-11.78,3.21v53.51H429.39v26.76H401.56v3.21h-7.49v6.42h-8.4v48.15h20.82a.85.85,0,0,1,.85.84V555.22h-.15v17.34H826.44V496.44Z"/><path class="cls-1" d="M353.4,364.23H339.78a.83.83,0,0,0-.83.82v1.58h44.24v-2.4Z"/><rect class="cls-1" x="338.95" y="368.33" width="44.23" height="12.79"/><polygon class="cls-1" points="310.5 460 307.73 464.94 323.91 464.94 325.74 461.67 325.74 460.05 324.46 460 310.5 460"/><rect class="cls-1" x="310.68" y="430.2" width="16.43" height="27.96"/><path class="cls-1" d="M319,412.14a.82.82,0,0,0-.82.82v.85h1.64V413A.82.82,0,0,0,319,412.14Z"/><rect class="cls-1" x="307.1" y="466.63" width="16.44" height="12.24"/><rect class="cls-1" x="307.1" y="480.57" width="16.44" height="12.99"/><rect class="cls-1" x="307.1" y="495.26" width="16.44" height="12.43"/><path class="cls-1" d="M272.43,460v2.66a1,1,0,0,0,0,.2.84.84,0,0,0,.33.57l2.21,1.51h9.15L281.38,460Z"/><path class="cls-1" d="M319.77,418.8v-3.29h-1.64v3.29h-6v-3.29h-1.64v3.29H305v-3.29h-1.64v3.29h-4.93v-3.29h-1.64v3.29H283.25a.82.82,0,0,0-.82.82v8l-1.57.91h57l-7.58-4.4a.85.85,0,0,1-.43-.73V418.8h-3.48v-3.29H324.7v3.29Z"/><path class="cls-1" d="M297.59,412.14a.82.82,0,0,0-.82.82v.85h1.64V413A.82.82,0,0,0,297.59,412.14Z"/><rect class="cls-1" x="307.1" y="509.38" width="16.44" height="12.05"/><path class="cls-1" d="M304.16,412.14a.82.82,0,0,0-.82.82v.85H305V413A.82.82,0,0,0,304.16,412.14Z"/><polygon class="cls-1" points="325.86 464.94 330.98 464.94 338.24 460 328.63 460 325.86 464.94"/><rect class="cls-1" x="328.81" y="430.2" width="11.33" height="27.96"/><path class="cls-1" d="M311.28,412.14a.82.82,0,0,0-.82.82v.85h1.64V413A.82.82,0,0,0,311.28,412.14Z"/><polygon class="cls-1" points="283.32 460 286.09 464.94 305.78 464.94 308.55 460 283.32 460"/><path class="cls-1" d="M381.4,551.62v2.27l.74.35c.35.17.7.35,1.05.55v-3.17Z"/><path class="cls-1" d="M375.05,554.31h-.18a15.1,15.1,0,0,0-2.65.28l-.16,0a.87.87,0,0,1-.73-.42,13.51,13.51,0,0,0-7.59-6.16,12.2,12.2,0,0,0-2.37-.5c-.42,0-.83-.06-1.25-.06s-.75,0-1.14,0a13.66,13.66,0,0,0-1.47.21c-7.22,1.53-11.92,9.13-10.49,16.95a15.9,15.9,0,0,0,1.1,3.53.85.85,0,0,1-.37,1.09,11.36,11.36,0,0,0-1.83,1.28l-2.28,2h39.55V556.77A14.83,14.83,0,0,0,375.05,554.31Z"/><path class="cls-1" d="M345.5,568.74l.74-.55-.29-.88a18.52,18.52,0,0,1-.6-2.33c-1.6-8.71,3.7-17.19,11.81-18.91a16.38,16.38,0,0,1,2-.27l1.2-.07V423.3a.85.85,0,0,1,.85-.84h22V382.81H339v36h-5.49V413a.82.82,0,1,0-1.64,0v5.84h-.29v4.08l9.84,5.71.09.06.1.08.11.12.09.14.05.12v0l0,.08c0,.08,0,.12,0,.16V459a2.15,2.15,0,0,1,0,.23v.08a.87.87,0,0,1-.34.59l-9.38,6.38V572.56h10l.2-.33A12.83,12.83,0,0,1,345.5,568.74Z"/><rect class="cls-1" x="286.47" y="466.63" width="18.93" height="12.24"/><rect class="cls-1" x="307.1" y="551.37" width="16.44" height="21.19"/><rect class="cls-1" x="282.89" y="430.2" width="26.09" height="27.96"/><rect class="cls-1" x="325.23" y="466.63" width="5.17" height="105.92"/><rect class="cls-1" x="307.1" y="537.25" width="16.44" height="12.43"/><path class="cls-1" d="M325.52,412.14a.82.82,0,0,0-.82.82v.85h1.65V413A.83.83,0,0,0,325.52,412.14Z"/><rect class="cls-1" x="286.47" y="537.25" width="18.93" height="12.43"/><path class="cls-1" d="M374.21,532.93a.85.85,0,1,1,0-1.7h9v-17h-9a.85.85,0,0,1,0-1.7h9v-17h-9a.85.85,0,1,1,0-1.69h9v-17h-9a.85.85,0,0,1,0-1.7h9v-17h-9a.85.85,0,0,1,0-1.7h9v-17h-9a.85.85,0,1,1,0-1.69h9V424.15H362.08V545.9l1,.23a15,15,0,0,1,8.1,4.94l1.6,1.88.62-2.39a.84.84,0,0,1,.81-.63h9v-17Z"/><path class="cls-1" d="M272.77,433.2l-.11.1-.09.12a.92.92,0,0,0-.07.13.84.84,0,0,0-.05.18s0,.07,0,.1v24.33h8.77v-28h-3.27l-5,2.89Z"/><rect class="cls-1" x="286.47" y="480.57" width="18.93" height="12.99"/><rect class="cls-1" x="281.88" y="480.57" width="2.89" height="12.99"/><rect class="cls-1" x="286.47" y="495.26" width="18.93" height="12.43"/><rect class="cls-1" x="286.47" y="509.38" width="18.93" height="12.05"/><rect class="cls-1" x="286.47" y="523.12" width="18.93" height="12.43"/><rect class="cls-1" x="281.88" y="509.38" width="2.89" height="12.05"/><polygon class="cls-1" points="281.88 478.87 284.77 478.87 284.77 466.63 277.49 466.63 281.88 469.62 281.88 478.87"/><rect class="cls-1" x="307.1" y="523.12" width="16.44" height="12.43"/><rect class="cls-1" x="281.88" y="523.12" width="2.89" height="12.43"/><rect class="cls-1" x="281.88" y="537.25" width="2.89" height="12.43"/><rect class="cls-1" x="281.88" y="495.26" width="2.89" height="12.43"/><rect class="cls-1" x="286.47" y="551.37" width="18.93" height="21.19"/><rect class="cls-1" x="281.88" y="551.37" width="2.89" height="21.19"/><rect class="cls-1" x="151.29" y="463.37" width="2.8" height="6.01"/><path class="cls-1" d="M162.18,465.21V459a.82.82,0,0,0-.82-.82H157V438.31a.21.21,0,0,0-.21-.22.22.22,0,0,0-.22.22v19.91h-4.4a.83.83,0,0,0-.83.82v2.64H155a.85.85,0,0,1,.84.85v6.9h3.13a.85.85,0,0,1,.85.84V572.56h5.37V465.21Z"/><path class="cls-1" d="M106.9,503.09v9.41h17.51V502.26H107.72A.83.83,0,0,0,106.9,503.09Z"/><path class="cls-1" d="M106.9,514.49v.28h-5a.82.82,0,0,0-.83.82v22.56H84v34.41h40.65V514.49Zm-14.05,50.1a7.05,7.05,0,0,1-.89.06,6.79,6.79,0,0,1-.89-.06v-8.35a7,7,0,0,1,.89,0,7.28,7.28,0,0,1,.89,0Zm0-16.2a7.28,7.28,0,0,1-.89.05,7,7,0,0,1-.89-.05V540A6.79,6.79,0,0,1,92,540a7.05,7.05,0,0,1,.89.06Zm13,16.2a6.63,6.63,0,0,1-1.78,0v-8.35a7.95,7.95,0,0,1,1.78,0Zm0-16.2a7.95,7.95,0,0,1-1.78,0V540a6.63,6.63,0,0,1,1.78,0Zm0-15.13a6.63,6.63,0,0,1-1.78,0v-8.35a7.95,7.95,0,0,1,1.78,0Zm13,31.33a6.56,6.56,0,0,1-1.77,0v-8.35a7.86,7.86,0,0,1,1.77,0Zm0-16.2a7.86,7.86,0,0,1-1.77,0V540a6.56,6.56,0,0,1,1.77,0ZM118,533.32a6.75,6.75,0,0,1-.88-.06v-8.35a7.86,7.86,0,0,1,1.77,0v8.35A6.79,6.79,0,0,1,118,533.32Z"/><path class="cls-1" d="M13.81,538.62a.87.87,0,0,0-.09.36v9.46h49a.85.85,0,0,1,.85.85V561a.85.85,0,0,1-.85.85h-49v10.7H82.28V538.62Z"/><path class="cls-1" d="M151.29,471.12v1.6h-2.36a.83.83,0,0,0-.83.82V486h3.64a.23.23,0,1,1,0,.45H148.1v14.13h3.64a.23.23,0,1,1,0,.45H148.1v1.27H126.33v70.3h31.74V471.12Zm.45,88.2H131.56a.24.24,0,0,1-.23-.22.24.24,0,0,1,.19-.22h20.22a.23.23,0,0,1,.23.23A.22.22,0,0,1,151.74,559.32Zm0-14.58H131.56a.24.24,0,0,1-.23-.22.22.22,0,0,1,.19-.22h20.22a.23.23,0,1,1,0,.45Zm0-14.58H131.56c-.13,0-.23-.11-.23-.23a.22.22,0,0,1,.19-.21h20.22a.23.23,0,1,1,0,.45Zm0-14.59H131.56a.24.24,0,0,1-.23-.22.24.24,0,0,1,.19-.22h20.22a.22.22,0,1,1,0,.44Z"/><rect class="cls-1" x="13.72" y="550.14" width="48.16" height="10.02"/><path class="cls-1" d="M1596.52,531.72a11.83,11.83,0,0,0,.42-6.11,12.94,12.94,0,0,0-8.47-9.53v32.69a13.9,13.9,0,0,0,2.81-8.38,10.87,10.87,0,0,0,0-1.14l-.06-.75.61-.44a12.91,12.91,0,0,0,4-4.7A12.38,12.38,0,0,0,1596.52,531.72Z"/><path class="cls-1" d="M1759.16,480.21V429.55h-4.09V385.29a.87.87,0,0,0-.87-.88h-12.11v-4.3h-41.5v4.3h-.28V514h11.59v-8.43a.9.9,0,0,1,1.8,0V514H1725v-8.43a.9.9,0,1,1,1.8,0v7.08a.91.91,0,0,1-.57.83l-.91.37.07,1V521l.84.35a.89.89,0,0,1,.56.83v7.08a.9.9,0,0,1-.56.83l-.84.35v7.24l.84.35a.89.89,0,0,1,.56.83V546a.9.9,0,0,1-.56.83l-.84.35v7.24l.84.35a.89.89,0,0,1,.56.83v7.08a.9.9,0,0,1-.56.83l-.84.35v8.72h33.75V480.21Zm-45.46,15.73a.9.9,0,0,1-1.8,0v-7.08a.9.9,0,0,1,1.8,0Zm0-16.68a.9.9,0,0,1-1.8,0v-7.08a.9.9,0,0,1,1.8,0Zm0-16.68a.9.9,0,0,1-1.8,0V455.5a.9.9,0,0,1,1.8,0Zm0-16.69a.91.91,0,0,1-.9.91h0a.91.91,0,0,1-.85-.85v-7.12a.9.9,0,0,1,1.8,0Zm0-16.68a.9.9,0,0,1-1.8,0v-7.07a.9.9,0,0,1,1.8,0Zm0-16.68a.9.9,0,0,1-1.8,0v-7.07a.9.9,0,0,1,1.8,0Zm0-16.68a.9.9,0,0,1-1.8,0v-7.08a.9.9,0,0,1,1.8,0Zm13.11,100.09a.9.9,0,1,1-1.8,0v-7.08a.9.9,0,1,1,1.8,0Zm0-16.68a.9.9,0,1,1-1.8,0v-7.08a.9.9,0,1,1,1.8,0Zm0-18.42v1.74a.92.92,0,0,1-.18.5.89.89,0,0,1-.72.4.9.9,0,0,1-.9-.9V455.5a.9.9,0,1,1,1.8,0Zm0-14.95a.9.9,0,1,1-1.8,0v-7.07a.9.9,0,1,1,1.8,0Zm0-16.68a.9.9,0,1,1-1.8,0v-7.07a.89.89,0,0,1,1.69-.41.93.93,0,0,1,.11.41Zm0-16.68a.9.9,0,1,1-1.8,0v-7.07a.9.9,0,1,1,1.8,0Zm0-16.68a.9.9,0,1,1-1.8,0v-7.08a.9.9,0,1,1,1.8,0Zm13.11,166.81a.9.9,0,1,1-1.8,0v-7.08a.9.9,0,1,1,1.8,0Zm0-16.68a.9.9,0,1,1-1.8,0V538.9a.9.9,0,0,1,1.8,0Zm0-16.68a.9.9,0,0,1-1.8,0v-7.08a.9.9,0,0,1,1.8,0Zm0-16.68a.9.9,0,1,1-1.8,0v-7.08a.9.9,0,1,1,1.8,0Zm0-16.68a.9.9,0,1,1-1.8,0v-7.08a.9.9,0,0,1,1.8,0Zm0-22v5.31a.9.9,0,1,1-1.8,0v-7.1a.9.9,0,0,1,1.8,0Zm0-11.37a.9.9,0,0,1-1.8,0V455.5a.9.9,0,0,1,1.8,0Zm0-16.69a.9.9,0,1,1-1.8,0v-7.07a.9.9,0,0,1,1.8,0Zm0-16.68a.9.9,0,1,1-1.8,0v-7.07a.9.9,0,0,1,1.8,0Zm0-23.11v6.43a.9.9,0,0,1-1.8,0v-7.07a.9.9,0,0,1,1.8,0Zm0-10.25a.9.9,0,1,1-1.8,0v-7.08a.9.9,0,0,1,1.8,0ZM1753,562.66a.91.91,0,0,1-1.81,0v-7.08a.91.91,0,0,1,1.81,0Zm0-16.68a.91.91,0,0,1-1.81,0V538.9a.91.91,0,0,1,1.81,0Zm0-16.68a.91.91,0,0,1-1.81,0v-7.08a.91.91,0,0,1,1.81,0Zm0-16.68a.91.91,0,0,1-1.81,0v-7.08a.91.91,0,0,1,1.81,0Zm0-16.68a.91.91,0,0,1-1.81,0v-7.08a.91.91,0,0,1,.44-.76.93.93,0,0,1,.47-.14.9.9,0,0,1,.88.81s0,.06,0,.09Zm0-16.68a.91.91,0,0,1-1.81,0v-7.08a.91.91,0,0,1,1.81,0Zm0-16.68a.91.91,0,0,1-1.81,0V455.5a.91.91,0,0,1,1.81,0Zm0-16.69a.91.91,0,1,1-1.81,0v-7.07a.91.91,0,0,1,1.81,0Zm0-16.68a.91.91,0,0,1-1.81,0v-7.07a.91.91,0,0,1,1.81,0Zm0-16.68a.91.91,0,0,1-1.81,0v-7.07a.91.91,0,0,1,1.81,0Zm0-18.83v2.15a.79.79,0,0,1,0,.22.88.88,0,0,1-1.22.6.89.89,0,0,1-.54-.82v-7.08a.91.91,0,0,1,1.81,0Z"/><path class="cls-1" d="M1733,359.89v-8.33a.87.87,0,0,0-.88-.87h-10.9v9.2Z"/><polygon class="cls-1" points="1657.71 532.09 1697.19 532.09 1698.38 532.09 1698.38 530.87 1698.38 525.15 1692.66 525.15 1690.25 525.15 1657.71 525.15 1657.71 532.09"/><path class="cls-1" d="M1666.28,437.11a29,29,0,0,0-15.88-25.9l-.72-.37v-5.95a27.88,27.88,0,0,0-15.07,1.5c-.81.31-1.61.67-2.38,1.05s-1.61.86-2.37,1.34a28.16,28.16,0,0,0,0,47.77,24,24,0,0,0,2.37,1.34c.77.39,1.57.74,2.38,1.06a28.13,28.13,0,0,0,20.43,0c.81-.32,1.61-.67,2.38-1.06l.21-.11A28.92,28.92,0,0,0,1666.28,437.11Zm-6-13.82a1.12,1.12,0,0,1,0-.27.9.9,0,0,1,1.75.27v18.76a.9.9,0,0,1-1.75.27,1.12,1.12,0,0,1,0-.27Zm-32.15,18.76a.9.9,0,1,1-1.8,0V423.29a.9.9,0,0,1,1.8,0Zm11.39,6.92a.9.9,0,1,1-1.8,0V416.36a.9.9,0,1,1,1.8,0Zm11.84,0a.9.9,0,1,1-1.8,0V416.36a.9.9,0,0,1,1.8,0Z"/><polygon class="cls-1" points="1678.7 564.51 1698.38 564.51 1698.38 557.58 1674.46 557.58 1672.05 557.58 1671.5 558.13 1672.77 559.26 1678.7 564.51"/><path class="cls-1" d="M1635.53,461.19l-1.79-.59v84.82h9.38V462.65l-1.23-.12A29.65,29.65,0,0,1,1635.53,461.19Z"/><polygon class="cls-1" points="1657.71 545.92 1660.4 548.3 1681.33 548.3 1683.74 548.3 1698.38 548.3 1698.38 541.37 1690.67 541.37 1688.26 541.37 1657.71 541.37 1657.71 545.92"/><path class="cls-1" d="M1625.57,399.26a.87.87,0,0,0-.87.87v10.31a30.42,30.42,0,0,1,6.5-4.49l.74-.38v-11a.91.91,0,0,1,.9-.91h5.86v-4.76h-.64v-15.8a.87.87,0,0,0-1.74,0v15.8h-4.2a.88.88,0,0,0-.88.87v9.53Z"/><path class="cls-1" d="M1624.84,552.21l7.1-6.29V459.76l-.74-.38a30,30,0,0,1-7.43-48.06A29.06,29.06,0,0,0,1624,463l.72.37v83.53l-6.89,6.1-1.24,1.1-20.82,18.45h6.13l21.69-19.22Z"/><path class="cls-1" d="M1689.23,385.29V514h9.28V384.41h-8.4A.87.87,0,0,0,1689.23,385.29Z"/><path class="cls-1" d="M1701.46,366.55a.87.87,0,0,0-.87.87v10.89h9.63V360.79a.9.9,0,0,1,.9-.9h8.31v-9.2h-9a.88.88,0,0,0-.88.87v15Z"/><path class="cls-1" d="M1741.22,366.55H1733v-4.86h-21v16.62h13V370a.9.9,0,1,1,1.8,0v8.31h11.31V370a.9.9,0,0,1,1.8,0v8.31h2.17V367.42A.87.87,0,0,0,1741.22,366.55Z"/><path class="cls-1" d="M1642.26,388.86h-1.76v4.38h2.63v-3.51A.87.87,0,0,0,1642.26,388.86Z"/><polygon class="cls-1" points="1633.61 560.97 1642.04 547.22 1633.18 547.22 1626.12 553.49 1624.84 554.62 1604.6 572.56 1626.5 572.56 1632.69 562.47 1633.61 560.97"/><polygon class="cls-1" points="1670.22 559.41 1656.47 547.22 1644.16 547.22 1634.91 562.28 1634 563.77 1628.61 572.56 1685.06 572.56 1671.5 560.54 1670.22 559.41"/><path class="cls-1" d="M1649.68,495.23V463.38l.72-.37a27.45,27.45,0,0,0,2.53-1.48,30,30,0,0,1-6.71,1.11l-1.3.05v82.73h11V515.93h-6.23Z"/><path class="cls-1" d="M1689.23,515.77v.16h-31.52v7.42h41.5l.13,0a.89.89,0,0,1,.84.88V533a.9.9,0,0,1-.85.89h-41.62v5.68h41.63a.89.89,0,0,1,.84.89v8.73a.89.89,0,0,1-.85.89h-36.89l6.4,5.68h30.5a.9.9,0,0,1,.84.89v8.73a.88.88,0,0,1-.85.89h-18.6l7,6.25h35.84V515.77Z"/><path class="cls-1" d="M1635.53,404.15a29.72,29.72,0,0,1,9.3-1.49,30.23,30.23,0,0,1,4.85.4v-2.93a.87.87,0,0,0-.87-.87h-5.68v-3.83h-9.39v9.3Z"/><path class="cls-1" d="M1846.06,556.19a.9.9,0,0,1,0-1.8h1v-17h-1a.9.9,0,1,1,0-1.8h1V519.15h-1a.9.9,0,1,1,0-1.8h1V500.92h-1a.9.9,0,1,1,0-1.8h1V483.26h-1a.9.9,0,1,1,0-1.8h1V463.88h-1a.9.9,0,1,1,0-1.8h1v-16h-74a.9.9,0,1,1,0-1.8h74V429.55H1761v143h86.12V556.19Zm-58.62,0h-14.35a.9.9,0,0,1,0-1.8h14.35a.9.9,0,0,1,0,1.8Zm0-18.81h-14.35a.9.9,0,1,1,0-1.8h14.35a.9.9,0,0,1,0,1.8Zm0-18.23h-14.35a.9.9,0,1,1,0-1.8h14.35a.9.9,0,0,1,0,1.8Zm0-18.23h-14.35a.9.9,0,1,1,0-1.8h14.35a.9.9,0,0,1,0,1.8Zm0-17.66h-14.35a.9.9,0,1,1,0-1.8h14.35a.9.9,0,0,1,0,1.8Zm0-19.38h-14.35a.9.9,0,1,1,0-1.8h14.35a.9.9,0,0,1,0,1.8ZM1813,556.19h-14.35a.9.9,0,0,1,0-1.8H1813a.9.9,0,0,1,0,1.8Zm0-18.81h-14.35a.9.9,0,1,1,0-1.8H1813a.9.9,0,0,1,0,1.8Zm0-18.23h-14.35a.9.9,0,1,1,0-1.8H1813a.9.9,0,0,1,0,1.8Zm0-18.23h-14.35a.9.9,0,1,1,0-1.8H1813a.9.9,0,0,1,0,1.8Zm0-17.66h-14.35a.9.9,0,1,1,0-1.8H1813a.9.9,0,0,1,0,1.8Zm0-19.38h-14.35a.9.9,0,1,1,0-1.8H1813a.9.9,0,0,1,0,1.8Zm24.3,92.31h-14.35a.9.9,0,1,1,0-1.8h14.35a.9.9,0,1,1,0,1.8Zm0-18.81h-14.35a.9.9,0,0,1,0-1.8h14.35a.9.9,0,1,1,0,1.8Zm0-18.23h-14.35a.9.9,0,0,1-.9-.9v0a.89.89,0,0,1,.88-.87h14.37a.9.9,0,1,1,0,1.8Zm0-18.23h-14.35a.9.9,0,1,1,0-1.8h14.35a.89.89,0,0,1,.84.61.72.72,0,0,1,.06.29A.9.9,0,0,1,1837.26,500.92Zm0-17.66h-14.35a.9.9,0,0,1,0-1.8h14.35a.9.9,0,0,1,0,1.8Zm0-19.38h-14.35a.9.9,0,0,1,0-1.8h14.35a.9.9,0,0,1,0,1.8Z"/><path class="cls-1" d="M217.53,458.75H211.2v2h-8.82a.82.82,0,0,0-.82.82v5.65h25.77v-8.44h-9.8Z"/><path class="cls-1" d="M212.15,450.7l-.54.32a.8.8,0,0,0-.41.7v5.33h5.56v-8.43h-4.37c-.07.48-.13,1-.18,1.45Z"/><path class="cls-1" d="M216.21,446.92l-.19-1.45a25,25,0,0,0-1.07-4.7,23.51,23.51,0,0,0-2.24,6.15Z"/><path class="cls-1" d="M206.36,468.88l-.13,0a8.47,8.47,0,0,1-3.92,0l-.13,0h-.62v1.67h-8.83a.82.82,0,0,0-.82.82V572.56h46.31V468.88Zm13.43,9.2h8.14a.85.85,0,0,1,0,1.7h-8.14a.85.85,0,0,1,0-1.7ZM208.34,560.5H200.2a.85.85,0,1,1,0-1.7h8.14a.85.85,0,0,1,0,1.7Zm0-10.09H200.2a.85.85,0,1,1,0-1.7h8.14a.85.85,0,1,1,0,1.7Zm0-10.09H200.2a.85.85,0,1,1,0-1.7h8.14a.85.85,0,0,1,0,1.7Zm0-10.09H200.2a.85.85,0,1,1,0-1.7h8.14a.85.85,0,0,1,0,1.7Zm0-10.09H200.2a.85.85,0,1,1,0-1.7h8.14a.85.85,0,1,1,0,1.7Zm0-10.09H200.2a.85.85,0,1,1,0-1.7h8.14a.85.85,0,1,1,0,1.7Zm0-10.09H200.2a.85.85,0,0,1,0-1.7h8.14a.85.85,0,0,1,0,1.7Zm0-10.09H200.2a.85.85,0,1,1,0-1.7h8.14a.85.85,0,1,1,0,1.7Zm0-10.09H200.2a.85.85,0,0,1,0-1.7h8.14a.85.85,0,0,1,0,1.7Zm19.59,80.72h-8.14a.85.85,0,1,1,0-1.7h8.14a.85.85,0,0,1,0,1.7Zm0-10.09h-8.14a.85.85,0,1,1,0-1.7h8.14a.85.85,0,1,1,0,1.7Zm0-10.09h-8.14a.85.85,0,1,1,0-1.7h8.14a.85.85,0,0,1,0,1.7Zm0-10.09h-8.14a.85.85,0,1,1,0-1.7h8.14a.85.85,0,0,1,0,1.7Zm0-10.09h-8.14a.85.85,0,1,1,0-1.7h8.14a.85.85,0,1,1,0,1.7Zm0-10.09h-8.14a.85.85,0,1,1,0-1.7h8.14a.85.85,0,1,1,0,1.7Zm0-10.09h-8.14a.85.85,0,0,1,0-1.7h8.14a.85.85,0,0,1,0,1.7Zm0-10.09h-8.14a.85.85,0,1,1,0-1.7h8.14a.85.85,0,1,1,0,1.7Z"/><path class="cls-1" d="M217.86,446.83l.34.33a.83.83,0,0,1,.26.61v9.28h9.72a.85.85,0,0,1,.85.85v9.29h10a.81.81,0,0,1,.47.16v-6.63h-.47v-9a.83.83,0,0,0-.25-.59l-.33-.32,0-.46a23.79,23.79,0,0,0-3.65-11.06c-2.11-3.16-4.81-5.12-7.82-5.67l-1-.18V412.66a.82.82,0,1,0-1.64,0v20.82l-1,.21a12.21,12.21,0,0,0-7.23,5.23,26.91,26.91,0,0,1,1.72,7.44Z"/><path class="cls-1" d="M1549.52,314.06h-32.17l4.07,8.19,1-.2a111,111,0,0,1,23.09-2.1c1.33,0,2.66,0,4,.07v-6Z"/><path class="cls-1" d="M1547.53,437.57l-1.1.22v14.37a.9.9,0,1,1-1.8,0V437.79l-1.1-.22c-11.53-2.24-18.8-23.31-22.86-40.59-5.22-22.16-8.39-52.13-8.83-82.92h-6.07l-2.34,116.74,0,2.36-.6,29.82,0,2.36-2.14,107.22h44v-98a.8.8,0,0,1,0-.15.89.89,0,0,1,1.77.15v32l.28.27-.28.28v65.39h3.09V437A10.88,10.88,0,0,1,1547.53,437.57Z"/><path class="cls-1" d="M1545.53,418.44c-7.08,0-13.62-10-18.42-28.27-3.59-13.62-5.95-30.67-6.87-49.19-.1-2.15-.19-4.32-.25-6.51q-.18-5.49-.18-11.1v-.32l-3.19-6.42-.37-.74-1.37.34-1.21.3c.57,30.06,3.68,58.49,8.75,80,6,25.41,14.18,39.4,23.11,39.4a9,9,0,0,0,4-1V417.33A8.18,8.18,0,0,1,1545.53,418.44Z"/><polygon class="cls-1" points="1450.69 555.93 1448.97 555.93 1421.66 555.93 1421.66 572.56 1474.35 572.56 1474.35 555.93 1450.69 555.93"/><path class="cls-1" d="M1419.89,554.89a.86.86,0,0,0-.82.86v16.81h.8V555A.25.25,0,0,0,1419.89,554.89Z"/><path class="cls-1" d="M1501,461.21l.6-29.82.05-2.36,2.3-115h-2.33a.88.88,0,0,0-.88.86l-.84,42.27-1.53,76.39-.05,2.29-.58,28.92,0,2.28-2.11,105.49h3.18l2.18-109Z"/><path class="cls-1" d="M1547.42,330.94a6.73,6.73,0,0,0-1.08-.18h-.3a.47.47,0,0,1-.47-.45.47.47,0,0,1,.45-.5h.06a5.65,5.65,0,0,1,1.1.12,7.75,7.75,0,0,1,1,.25,10.34,10.34,0,0,1,1.33.54v-8.89c-1.33,0-2.65-.07-4-.07a109.63,109.63,0,0,0-22.82,2.07l-1.1.22v1.13q0,8.07.44,15.77c.09,1.86.2,3.7.32,5.52,2.67,40.2,12.1,70.18,23.16,70.18a7.13,7.13,0,0,0,4-1.33V331.76A9.19,9.19,0,0,0,1547.42,330.94Z"/><path class="cls-1" d="M1465.25,326.06h-18.19l5.87,25,.22,0,1-.12.72-.07.82-.05h.09a.85.85,0,0,1,.23,0l.21.08.06,0a1.79,1.79,0,0,1,.15.14,1.28,1.28,0,0,1,.14.21l.07.14c.37.87,2.82,6.87,6.44,21.67.19.8.39,1.64.58,2.46.53,2.24,1.07,4.57,1.6,7V326.06Z"/><path class="cls-1" d="M1431.17,546.08c1.15-5,2.23-10,3.22-15l.13-.69-.47-.51c-.74-.79-1.58-1.65-2.46-2.57-2.75-2.83-5.81-6-7.32-8.4a.89.89,0,0,1-.07-.81c10-24.89,15.48-87.72,15.88-104.28a.87.87,0,0,1,.24-.59l.43-.45-.06-.62c-1.64-17.41-4.16-33.95-6.73-49.39-.51.2-1,.41-1.54.63a.87.87,0,0,0-.52.95c2.78,16.37,5.6,34.11,7.37,52.88l.06.59-.42.44a.88.88,0,0,0-.23.58c-.39,16.05-5.74,77-15.4,101.1a.92.92,0,0,0,.07.79c1.46,2.33,4.43,5.39,7.09,8.14.86.89,1.67,1.72,2.39,2.49l.46.49-.13.67c-1,4.79-2,9.67-3.12,14.5l0,.06h.9Z"/><path class="cls-1" d="M1442.34,464.33l.05-1.35c0-.92.07-1.85.09-2.76.12-5.18.14-10.34.06-15.32l0-1.77-2.72-.1c-1.9,19.65-6.19,55.48-13.48,74.68l-.26.7.44.59a74.28,74.28,0,0,0,6,6.68l1.79,1.84.52-2.51A367.77,367.77,0,0,0,1442.34,464.33Z"/><path class="cls-1" d="M1451.19,351.47l-6-25.41h-2.27a.85.85,0,0,0-.68.33.86.86,0,0,0-.17.74l5.89,25c.64-.14,1.26-.28,1.83-.39Z"/><path class="cls-1" d="M1457.24,502.54l8-.48V495l-6.69.8a.92.92,0,0,1-1-.79.9.9,0,0,1,.79-1l6.89-.83v-6.42l-6.94.86h-.11a.9.9,0,0,1-.11-1.79l7.16-.9v-5.75l-6,.87h-.13a.9.9,0,0,1-.13-1.79l6.3-.91v-6.19l-6.76,1.62-.21,0a.89.89,0,0,1-.87-.69.92.92,0,0,1,.1-.69.91.91,0,0,1,.56-.4l7.18-1.72v-5.55l-6.75,1.77a.91.91,0,0,1-.23,0,.89.89,0,0,1-.87-.67.9.9,0,0,1,.64-1.1l7.21-1.9V456l-6.57,1.73a.9.9,0,0,1-.46-1.75l7-1.85v-7.67l-6.51,1.71a.85.85,0,0,1-.23,0,.9.9,0,0,1-.78-1.35.92.92,0,0,1,.55-.42l7-1.83V438.4l-6.48,1.71a.9.9,0,0,1-.46-1.75l6.94-1.82v-7l-6.82,1.8-.24,0a.9.9,0,0,1-.86-.67.85.85,0,0,1,.09-.68.87.87,0,0,1,.55-.42l7.28-1.92v-5.93l-6,1.57-.23,0a.9.9,0,0,1-.23-1.77l6.41-1.69v-7.36l-7.51,2a.85.85,0,0,1-.23,0,.91.91,0,0,1-.87-.67.88.88,0,0,1,.1-.69.89.89,0,0,1,.54-.41l8-2.1v-8l-9.58,2.53-.23,0a.91.91,0,0,1-.23-1.78l10-2.64V394l-10.88,2.87a.85.85,0,0,1-.23,0,.9.9,0,0,1-.87-.67.91.91,0,0,1,.64-1.1l11.34-3v-.83l-.1-.47c-.35-1.68-.68-3.28-1-4.82l-.3-1.4-12,3.18a.9.9,0,0,1-1.1-.64.9.9,0,0,1,.64-1.1l12.13-3.2-.29-1.28c-.36-1.61-.71-3.15-1.06-4.61l-.32-1.36-10.88,2.87a.85.85,0,0,1-.23,0,.91.91,0,0,1-.87-.67.89.89,0,0,1,.09-.68.92.92,0,0,1,.55-.42L1461.1,374l.26-.07-.6-2.42-1-3.54-.37-1.29-1.15.31-7.44,2a.85.85,0,0,1-.23,0,.91.91,0,0,1-.87-.67.93.93,0,0,1,.09-.69.94.94,0,0,1,.55-.41l7.27-1.92,1.29-.34-.39-1.34c-.2-.68-.4-1.34-.6-2l-.57-1.86-1.53.4-6.07,1.6-.23,0a.89.89,0,0,1-.87-.67.9.9,0,0,1,.64-1.1l6-1.58,1.54-.4-.67-2.11c-.22-.71-.45-1.43-.68-2.13l-.36-1.1-1.14.18-.34.05c-1.36.22-3.16.54-5.26,1l1.06,4.49-1.34.27a85.12,85.12,0,0,0-12.44,3.5c3.51,21.09,7.13,45.85,8.3,71.88.22,3.93.37,8,.44,12.08.09,5.92,0,12.09-.24,18.33-.87,26-4.46,52.49-11,81l-.39,1.66h32.47v-3.92l-12.3-.07h-1.74l-12.3-.07a.88.88,0,0,1-.64-.26.91.91,0,0,1,.64-1.54l12.69.07h1.75l11.9.07v-5.08l-10.65-.06h-1.76l-9,0a.9.9,0,0,1-.89-.9.91.91,0,0,1,.92-.9l9.45.05h1.76l10.18.06v-6.24l-8.34,0h-1.78l-5.86,0a.88.88,0,0,1-.63-.26.92.92,0,0,1-.26-.64.9.9,0,0,1,.9-.9l6.42,0h1.78l7.77,0v-5.78l-5.84.24-1.85.08-3.8.16a.9.9,0,0,1-.93-.86.89.89,0,0,1,.86-.94l4.55-.19,1.85-.08,5.16-.21v-6.54l-2.44.08-1.88.07-4.62.16a.91.91,0,0,1-.93-.87.93.93,0,0,1,.25-.65.9.9,0,0,1,.62-.28l5.46-.19,1.9-.07,1.64-.05v-6.71l-.34,0-7.57.45a.89.89,0,0,1-.72-1.49A.88.88,0,0,1,1457.24,502.54Z"/><path class="cls-1" d="M1450.07,548.93h-29.31a.89.89,0,0,1-.89-.83.87.87,0,0,0,.08,1.74h45.3v-.91h-15.18Z"/><path class="cls-3" d="M118,524.86a7,7,0,0,0-.88,0v8.35a6.56,6.56,0,0,0,1.77,0v-8.35A7,7,0,0,0,118,524.86Z"/><path class="cls-3" d="M104.11,524.91v8.35a6.63,6.63,0,0,0,1.78,0v-8.35a7.95,7.95,0,0,0-1.78,0Z"/><path class="cls-3" d="M91.07,524.91v8.35a6.79,6.79,0,0,0,.89.06,7.05,7.05,0,0,0,.89-.06v-8.35a7.28,7.28,0,0,0-.89,0A7,7,0,0,0,91.07,524.91Z"/><path class="cls-3" d="M117.16,540v8.35a7.86,7.86,0,0,0,1.77,0V540a6.56,6.56,0,0,0-1.77,0Z"/><path class="cls-3" d="M104.11,540v8.35a7.95,7.95,0,0,0,1.78,0V540a6.63,6.63,0,0,0-1.78,0Z"/><path class="cls-3" d="M91.07,540v8.35a7,7,0,0,0,.89.05,7.28,7.28,0,0,0,.89-.05V540A7.05,7.05,0,0,0,92,540,6.79,6.79,0,0,0,91.07,540Z"/><path class="cls-3" d="M117.16,556.24v8.35a6.56,6.56,0,0,0,1.77,0v-8.35a7.86,7.86,0,0,0-1.77,0Z"/><path class="cls-3" d="M104.11,556.24v8.35a6.63,6.63,0,0,0,1.78,0v-8.35a7.95,7.95,0,0,0-1.78,0Z"/><path class="cls-3" d="M91.07,556.24v8.35a6.79,6.79,0,0,0,.89.06,7.05,7.05,0,0,0,.89-.06v-8.35a7.28,7.28,0,0,0-.89,0A7,7,0,0,0,91.07,556.24Z"/><path class="cls-3" d="M131.33,486.18a.23.23,0,0,0,.23.23h20.18a.23.23,0,1,0,0-.45H131.56A.22.22,0,0,0,131.33,486.18Z"/><path class="cls-3" d="M131.33,500.77a.22.22,0,0,0,.23.22h20.18a.23.23,0,1,0,0-.45H131.56A.23.23,0,0,0,131.33,500.77Z"/><path class="cls-3" d="M151.74,515.13H131.52a.24.24,0,0,0-.19.22.24.24,0,0,0,.23.22h20.18a.22.22,0,1,0,0-.44Z"/><path class="cls-3" d="M151.74,529.71H131.52a.22.22,0,0,0-.19.21c0,.12.1.2.23.23h20.18a.23.23,0,1,0,0-.45Z"/><path class="cls-3" d="M151.74,544.29H131.52a.22.22,0,0,0-.19.22.24.24,0,0,0,.23.22h20.18a.23.23,0,1,0,0-.45Z"/><path class="cls-3" d="M151.74,558.87H131.52a.24.24,0,0,0-.19.22.24.24,0,0,0,.23.22h20.18a.22.22,0,0,0,.23-.22A.23.23,0,0,0,151.74,558.87Z"/><path class="cls-3" d="M373.36,438.61a.85.85,0,0,0,.85.85h21.28a.85.85,0,1,0,0-1.69H374.21A.85.85,0,0,0,373.36,438.61Z"/><path class="cls-3" d="M373.36,457.31a.85.85,0,0,0,.85.85h21.28a.85.85,0,1,0,0-1.7H374.21A.85.85,0,0,0,373.36,457.31Z"/><path class="cls-3" d="M373.36,476a.85.85,0,0,0,.85.85h21.28a.85.85,0,1,0,0-1.7H374.21A.85.85,0,0,0,373.36,476Z"/><path class="cls-3" d="M373.36,494.7a.85.85,0,0,0,.85.84h21.28a.85.85,0,1,0,0-1.69H374.21A.85.85,0,0,0,373.36,494.7Z"/><path class="cls-3" d="M373.36,513.39a.85.85,0,0,0,.85.85h21.28a.85.85,0,1,0,0-1.7H374.21A.85.85,0,0,0,373.36,513.39Z"/><path class="cls-3" d="M373.36,532.08a.85.85,0,0,0,.85.85h21.28a.85.85,0,1,0,0-1.7H374.21A.85.85,0,0,0,373.36,532.08Z"/><path class="cls-3" d="M1712.8,387.87a.9.9,0,0,0-.9.9v7.08a.9.9,0,0,0,1.8,0v-7.08A.91.91,0,0,0,1712.8,387.87Z"/><path class="cls-3" d="M1725.91,387.87a.9.9,0,0,0-.9.9v7.08a.9.9,0,1,0,1.8,0v-7.08A.91.91,0,0,0,1725.91,387.87Z"/><path class="cls-3" d="M1739,387.87a.9.9,0,0,0-.9.9v7.08a.9.9,0,1,0,1.8,0v-7.08A.91.91,0,0,0,1739,387.87Z"/><path class="cls-3" d="M1752.13,387.87a.91.91,0,0,0-.91.9v7.08a.89.89,0,0,0,.54.82.88.88,0,0,0,1.22-.6.79.79,0,0,0,0-.22v-7.08A.91.91,0,0,0,1752.13,387.87Z"/><path class="cls-3" d="M1712.8,404.56a.9.9,0,0,0-.9.9v7.07a.9.9,0,0,0,1.8,0v-7.07A.9.9,0,0,0,1712.8,404.56Z"/><path class="cls-3" d="M1725.91,404.56a.9.9,0,0,0-.9.9v7.07a.9.9,0,1,0,1.8,0v-7.07A.9.9,0,0,0,1725.91,404.56Z"/><path class="cls-3" d="M1739,404.56a.9.9,0,0,0-.9.9v7.07a.9.9,0,0,0,1.8,0v-7.07A.9.9,0,0,0,1739,404.56Z"/><path class="cls-3" d="M1752.13,404.56a.9.9,0,0,0-.91.9v7.07a.91.91,0,0,0,1.81,0v-7.07A.9.9,0,0,0,1752.13,404.56Z"/><path class="cls-3" d="M1712.8,421.24a.9.9,0,0,0-.9.9v7.07a.9.9,0,0,0,1.8,0v-7.07A.9.9,0,0,0,1712.8,421.24Z"/><path class="cls-3" d="M1725.91,421.24a.9.9,0,0,0-.9.9v7.07a.9.9,0,1,0,1.8,0v-7.07a.93.93,0,0,0-.11-.41A.9.9,0,0,0,1725.91,421.24Z"/><path class="cls-3" d="M1739,421.24a.9.9,0,0,0-.9.9v7.07a.9.9,0,1,0,1.8,0v-7.07A.9.9,0,0,0,1739,421.24Z"/><path class="cls-3" d="M1752.13,421.24a.9.9,0,0,0-.91.9v7.07a.91.91,0,0,0,1.81,0v-7.07A.9.9,0,0,0,1752.13,421.24Z"/><path class="cls-3" d="M1712.8,437.92a.9.9,0,0,0-.9.9v7.12a.91.91,0,0,0,.85.85h0a.91.91,0,0,0,.9-.91v-7.07A.9.9,0,0,0,1712.8,437.92Z"/><path class="cls-3" d="M1725.91,437.92a.9.9,0,0,0-.9.9v7.07a.9.9,0,1,0,1.8,0v-7.07A.9.9,0,0,0,1725.91,437.92Z"/><path class="cls-3" d="M1739,437.92a.9.9,0,0,0-.9.9v7.07a.9.9,0,1,0,1.8,0v-7.07A.9.9,0,0,0,1739,437.92Z"/><path class="cls-3" d="M1752.13,437.92a.9.9,0,0,0-.91.9v7.07a.91.91,0,1,0,1.81,0v-7.07A.9.9,0,0,0,1752.13,437.92Z"/><path class="cls-3" d="M1712.8,454.6a.9.9,0,0,0-.9.9v7.08a.9.9,0,0,0,1.8,0V455.5A.9.9,0,0,0,1712.8,454.6Z"/><path class="cls-3" d="M1725.91,454.6a.9.9,0,0,0-.9.9v7.08a.9.9,0,0,0,.9.9.89.89,0,0,0,.72-.4.92.92,0,0,0,.18-.5V455.5A.9.9,0,0,0,1725.91,454.6Z"/><path class="cls-3" d="M1739,454.6a.9.9,0,0,0-.9.9v7.08a.9.9,0,0,0,1.8,0V455.5A.9.9,0,0,0,1739,454.6Z"/><path class="cls-3" d="M1752.13,454.6a.9.9,0,0,0-.91.9v7.08a.91.91,0,0,0,1.81,0V455.5A.9.9,0,0,0,1752.13,454.6Z"/><path class="cls-3" d="M1712.8,471.28a.9.9,0,0,0-.9.9v7.08a.9.9,0,0,0,1.8,0v-7.08A.9.9,0,0,0,1712.8,471.28Z"/><path class="cls-3" d="M1725.91,471.28a.9.9,0,0,0-.9.9v7.08a.9.9,0,1,0,1.8,0v-7.08A.9.9,0,0,0,1725.91,471.28Z"/><path class="cls-3" d="M1739,471.28a.9.9,0,0,0-.9.88v7.1a.9.9,0,1,0,1.8,0v-7.08A.9.9,0,0,0,1739,471.28Z"/><path class="cls-3" d="M1752.13,471.28a.9.9,0,0,0-.91.9v7.08a.91.91,0,0,0,1.81,0v-7.08A.9.9,0,0,0,1752.13,471.28Z"/><path class="cls-3" d="M1712.8,488a.9.9,0,0,0-.9.9v7.08a.9.9,0,0,0,1.8,0v-7.08A.9.9,0,0,0,1712.8,488Z"/><path class="cls-3" d="M1725.91,488a.9.9,0,0,0-.9.9v7.08a.9.9,0,1,0,1.8,0v-7.08A.9.9,0,0,0,1725.91,488Z"/><path class="cls-3" d="M1739,488a.9.9,0,0,0-.9.9v7.08a.9.9,0,1,0,1.8,0v-7.08A.9.9,0,0,0,1739,488Z"/><path class="cls-3" d="M1752.13,488a.93.93,0,0,0-.47.14.91.91,0,0,0-.44.76v7.08a.91.91,0,0,0,1.81,0v-7.08s0-.06,0-.09A.9.9,0,0,0,1752.13,488Z"/><path class="cls-3" d="M1739,504.64a.9.9,0,0,0-.9.9v7.08a.9.9,0,1,0,1.8,0v-7.08A.9.9,0,0,0,1739,504.64Z"/><path class="cls-3" d="M1752.13,504.64a.9.9,0,0,0-.91.9v7.08a.91.91,0,0,0,1.81,0v-7.08A.9.9,0,0,0,1752.13,504.64Z"/><path class="cls-3" d="M1739,521.32a.9.9,0,0,0-.9.9v7.08a.9.9,0,0,0,1.8,0v-7.08A.9.9,0,0,0,1739,521.32Z"/><path class="cls-3" d="M1752.13,521.32a.9.9,0,0,0-.91.9v7.08a.91.91,0,0,0,1.81,0v-7.08A.9.9,0,0,0,1752.13,521.32Z"/><path class="cls-3" d="M1739,538a.9.9,0,0,0-.9.9V546a.9.9,0,1,0,1.8,0V538.9A.9.9,0,0,0,1739,538Z"/><path class="cls-3" d="M1752.13,538a.9.9,0,0,0-.91.9V546a.91.91,0,0,0,1.81,0V538.9A.9.9,0,0,0,1752.13,538Z"/><path class="cls-3" d="M1739,554.68a.9.9,0,0,0-.9.9v7.08a.9.9,0,1,0,1.8,0v-7.08A.9.9,0,0,0,1739,554.68Z"/><path class="cls-3" d="M1752.13,554.68a.9.9,0,0,0-.91.9v7.08a.91.91,0,0,0,1.81,0v-7.08A.9.9,0,0,0,1752.13,554.68Z"/><path class="cls-3" d="M188.75,478.08h-8.14a.85.85,0,1,0,0,1.7h8.14a.85.85,0,0,0,0-1.7Z"/><path class="cls-3" d="M188.75,488.17h-8.14a.85.85,0,0,0,0,1.7h8.14a.85.85,0,1,0,0-1.7Z"/><path class="cls-3" d="M188.75,498.26h-8.14a.85.85,0,1,0,0,1.7h8.14a.85.85,0,0,0,0-1.7Z"/><path class="cls-3" d="M188.75,508.35h-8.14a.85.85,0,0,0,0,1.7h8.14a.85.85,0,1,0,0-1.7Z"/><path class="cls-3" d="M188.75,518.44h-8.14a.85.85,0,0,0,0,1.7h8.14a.85.85,0,1,0,0-1.7Z"/><path class="cls-3" d="M188.75,528.53h-8.14a.85.85,0,0,0,0,1.7h8.14a.85.85,0,0,0,0-1.7Z"/><path class="cls-3" d="M188.75,538.62h-8.14a.85.85,0,1,0,0,1.7h8.14a.85.85,0,0,0,0-1.7Z"/><path class="cls-3" d="M188.75,548.71h-8.14a.85.85,0,0,0,0,1.7h8.14a.85.85,0,1,0,0-1.7Z"/><path class="cls-3" d="M188.75,558.8h-8.14a.85.85,0,0,0,0,1.7h8.14a.85.85,0,0,0,0-1.7Z"/><path class="cls-3" d="M208.34,478.08H200.2a.85.85,0,0,0,0,1.7h8.14a.85.85,0,0,0,0-1.7Z"/><path class="cls-3" d="M208.34,488.17H200.2a.85.85,0,1,0,0,1.7h8.14a.85.85,0,1,0,0-1.7Z"/><path class="cls-3" d="M208.34,498.26H200.2a.85.85,0,0,0,0,1.7h8.14a.85.85,0,0,0,0-1.7Z"/><path class="cls-3" d="M208.34,508.35H200.2a.85.85,0,1,0,0,1.7h8.14a.85.85,0,1,0,0-1.7Z"/><path class="cls-3" d="M208.34,518.44H200.2a.85.85,0,1,0,0,1.7h8.14a.85.85,0,1,0,0-1.7Z"/><path class="cls-3" d="M208.34,528.53H200.2a.85.85,0,1,0,0,1.7h8.14a.85.85,0,0,0,0-1.7Z"/><path class="cls-3" d="M208.34,538.62H200.2a.85.85,0,1,0,0,1.7h8.14a.85.85,0,0,0,0-1.7Z"/><path class="cls-3" d="M208.34,548.71H200.2a.85.85,0,1,0,0,1.7h8.14a.85.85,0,1,0,0-1.7Z"/><path class="cls-3" d="M208.34,558.8H200.2a.85.85,0,1,0,0,1.7h8.14a.85.85,0,0,0,0-1.7Z"/><path class="cls-3" d="M219.79,479.78h8.14a.85.85,0,0,0,0-1.7h-8.14a.85.85,0,0,0,0,1.7Z"/><path class="cls-3" d="M227.93,488.17h-8.14a.85.85,0,1,0,0,1.7h8.14a.85.85,0,1,0,0-1.7Z"/><path class="cls-3" d="M227.93,498.26h-8.14a.85.85,0,0,0,0,1.7h8.14a.85.85,0,0,0,0-1.7Z"/><path class="cls-3" d="M227.93,508.35h-8.14a.85.85,0,1,0,0,1.7h8.14a.85.85,0,1,0,0-1.7Z"/><path class="cls-3" d="M227.93,518.44h-8.14a.85.85,0,1,0,0,1.7h8.14a.85.85,0,1,0,0-1.7Z"/><path class="cls-3" d="M227.93,528.53h-8.14a.85.85,0,1,0,0,1.7h8.14a.85.85,0,0,0,0-1.7Z"/><path class="cls-3" d="M227.93,538.62h-8.14a.85.85,0,1,0,0,1.7h8.14a.85.85,0,0,0,0-1.7Z"/><path class="cls-3" d="M227.93,548.71h-8.14a.85.85,0,1,0,0,1.7h8.14a.85.85,0,1,0,0-1.7Z"/><path class="cls-3" d="M227.93,558.8h-8.14a.85.85,0,1,0,0,1.7h8.14a.85.85,0,0,0,0-1.7Z"/><path class="cls-3" d="M1547.18,329.92a5.65,5.65,0,0,0-1.1-.12H1546a.47.47,0,0,0-.45.5.47.47,0,0,0,.47.45h.3a6.73,6.73,0,0,1,1.08.18,9.19,9.19,0,0,1,2.1.82,12.66,12.66,0,0,1,2.78,2,.47.47,0,0,0,.32.12h.13a.5.5,0,0,0,.3-.25l0-.07.05-.05c.23-.3,1.11-1.18,4.18-2.91a.48.48,0,0,0,.23-.29.46.46,0,0,0,0-.36.47.47,0,0,0-.64-.18,26.27,26.27,0,0,0-3.86,2.53l-.45.39-.47-.38a12.25,12.25,0,0,0-2.55-1.59,10.34,10.34,0,0,0-1.33-.54A7.75,7.75,0,0,0,1547.18,329.92Z"/><path class="cls-3" d="M1795.09,444.29h-22a.9.9,0,1,0,0,1.8h112.05a.9.9,0,0,0,0-1.8h-90.05Z"/><path class="cls-3" d="M1787.44,462.08h-14.35a.9.9,0,1,0,0,1.8h14.35a.9.9,0,0,0,0-1.8Z"/><path class="cls-3" d="M1787.44,481.46h-14.35a.9.9,0,1,0,0,1.8h14.35a.9.9,0,0,0,0-1.8Z"/><path class="cls-3" d="M1787.44,499.12h-14.35a.9.9,0,1,0,0,1.8h14.35a.9.9,0,0,0,0-1.8Z"/><path class="cls-3" d="M1787.44,517.35h-14.35a.9.9,0,1,0,0,1.8h14.35a.9.9,0,0,0,0-1.8Z"/><path class="cls-3" d="M1787.44,535.58h-14.35a.9.9,0,1,0,0,1.8h14.35a.9.9,0,0,0,0-1.8Z"/><path class="cls-3" d="M1787.44,554.39h-14.35a.9.9,0,0,0,0,1.8h14.35a.9.9,0,0,0,0-1.8Z"/><path class="cls-3" d="M1813,462.08h-14.35a.9.9,0,1,0,0,1.8H1813a.9.9,0,0,0,0-1.8Z"/><path class="cls-3" d="M1813,481.46h-14.35a.9.9,0,1,0,0,1.8H1813a.9.9,0,0,0,0-1.8Z"/><path class="cls-3" d="M1813,499.12h-14.35a.9.9,0,1,0,0,1.8H1813a.9.9,0,0,0,0-1.8Z"/><path class="cls-3" d="M1813,517.35h-14.35a.9.9,0,1,0,0,1.8H1813a.9.9,0,0,0,0-1.8Z"/><path class="cls-3" d="M1813,535.58h-14.35a.9.9,0,1,0,0,1.8H1813a.9.9,0,0,0,0-1.8Z"/><path class="cls-3" d="M1813,554.39h-14.35a.9.9,0,0,0,0,1.8H1813a.9.9,0,0,0,0-1.8Z"/><path class="cls-3" d="M1837.26,462.08h-14.35a.9.9,0,0,0,0,1.8h14.35a.9.9,0,0,0,0-1.8Z"/><path class="cls-3" d="M1837.26,481.46h-14.35a.9.9,0,0,0,0,1.8h14.35a.9.9,0,0,0,0-1.8Z"/><path class="cls-3" d="M1837.26,499.12h-14.35a.9.9,0,1,0,0,1.8h14.35a.9.9,0,0,0,.9-.9.72.72,0,0,0-.06-.29A.89.89,0,0,0,1837.26,499.12Z"/><path class="cls-3" d="M1837.26,517.35h-14.37a.89.89,0,0,0-.88.87v0a.9.9,0,0,0,.9.9h14.35a.9.9,0,1,0,0-1.8Z"/><path class="cls-3" d="M1837.26,535.58h-14.35a.9.9,0,0,0,0,1.8h14.35a.9.9,0,1,0,0-1.8Z"/><path class="cls-3" d="M1837.26,554.39h-14.35a.9.9,0,1,0,0,1.8h14.35a.9.9,0,1,0,0-1.8Z"/><path class="cls-3" d="M1845.16,463a.9.9,0,0,0,.9.9h14.36a.9.9,0,0,0,0-1.8h-14.36A.9.9,0,0,0,1845.16,463Z"/><path class="cls-3" d="M1845.16,482.36a.9.9,0,0,0,.9.9h14.36a.9.9,0,0,0,0-1.8h-14.36A.9.9,0,0,0,1845.16,482.36Z"/><path class="cls-3" d="M1845.16,500a.9.9,0,0,0,.9.9h14.36a.9.9,0,0,0,0-1.8h-14.36A.9.9,0,0,0,1845.16,500Z"/><path class="cls-3" d="M1845.16,518.25a.9.9,0,0,0,.9.9h14.36a.9.9,0,0,0,0-1.8h-14.36A.9.9,0,0,0,1845.16,518.25Z"/><path class="cls-3" d="M1845.16,536.48a.9.9,0,0,0,.9.9h14.36a.9.9,0,0,0,0-1.8h-14.36A.9.9,0,0,0,1845.16,536.48Z"/><path class="cls-3" d="M1845.16,555.29a.9.9,0,0,0,.9.9h14.36a.9.9,0,0,0,0-1.8h-14.36A.9.9,0,0,0,1845.16,555.29Z"/><path class="cls-3" d="M1870.78,463.88h14.36a.9.9,0,0,0,0-1.8h-14.36a.9.9,0,1,0,0,1.8Z"/><path class="cls-3" d="M1870.78,483.26h14.36a.9.9,0,0,0,0-1.8h-14.36a.9.9,0,1,0,0,1.8Z"/><path class="cls-3" d="M1870.78,500.92h14.36a.9.9,0,0,0,0-1.8h-14.36a.9.9,0,1,0,0,1.8Z"/><path class="cls-3" d="M1870.78,519.15h14.36a.9.9,0,0,0,0-1.8h-14.36a.9.9,0,1,0,0,1.8Z"/><path class="cls-3" d="M1870.78,537.38h14.36a.86.86,0,0,0,.39-.09.9.9,0,0,0-.39-1.71h-14.36a.9.9,0,1,0,0,1.8Z"/><path class="cls-3" d="M1609.62,417.55a.71.71,0,0,0,.29.05.89.89,0,0,0,.85-.6,30.75,30.75,0,0,1,3.71-7.32.9.9,0,0,0-.22-1.25.88.88,0,0,0-.51-.16.9.9,0,0,0-.75.39,32.13,32.13,0,0,0-3.93,7.75.89.89,0,0,0,0,.68A.91.91,0,0,0,1609.62,417.55Z"/><path class="cls-3" d="M1608,442.93c-.25-1-.46-2-.63-3a39.29,39.29,0,0,1,.08-13.29.9.9,0,0,0-.73-1l-.16,0a.91.91,0,0,0-.89.75,41.55,41.55,0,0,0-.41,11.5c.1.94.24,1.88.41,2.81a41,41,0,0,0,6.16,15.47.91.91,0,0,0,.75.4.89.89,0,0,0,.5-.15.9.9,0,0,0,.25-1.24A39.26,39.26,0,0,1,1608,442.93Z"/><path class="cls-3" d="M1684.28,445a.85.85,0,0,0,.23,0,.91.91,0,0,0,.87-.68,32.31,32.31,0,0,0,1-8.63.9.9,0,0,0-.92-.88h0a.89.89,0,0,0-.63.27.85.85,0,0,0-.25.64,30.87,30.87,0,0,1-1,8.15A.91.91,0,0,0,1684.28,445Z"/><path class="cls-3" d="M1676.23,458.74a.94.94,0,0,0,.59-.21c.67-.58,1.32-1.18,1.94-1.8a.91.91,0,0,0,0-1.28,1,1,0,0,0-.64-.26.91.91,0,0,0-.64.27c-.58.59-1.2,1.16-1.83,1.7a.9.9,0,0,0-.1,1.27A.89.89,0,0,0,1676.23,458.74Z"/><path class="cls-3" d="M1627.27,422.39a.9.9,0,0,0-.9.9v18.76a.9.9,0,1,0,1.8,0V423.29A.9.9,0,0,0,1627.27,422.39Z"/><path class="cls-3" d="M1638.66,415.46a.91.91,0,0,0-.9.9V449a.9.9,0,1,0,1.8,0V416.36A.9.9,0,0,0,1638.66,415.46Z"/><path class="cls-3" d="M1650.5,415.46a.9.9,0,0,0-.9.9V449a.9.9,0,1,0,1.8,0V416.36A.9.9,0,0,0,1650.5,415.46Z"/><path class="cls-3" d="M1661.22,443a.9.9,0,0,0,.9-.9V423.29a.9.9,0,0,0-1.75-.27,1.12,1.12,0,0,0,0,.27v18.76a1.12,1.12,0,0,0,0,.27A.9.9,0,0,0,1661.22,443Z"/><path class="cls-3" d="M1447.77,318.12h-3.29a.91.91,0,0,0-.88,1.11l1.61,6.83,6,25.41-1.38.28c-.57.11-1.19.25-1.83.39a82.36,82.36,0,0,0-14.36,4.55.9.9,0,0,0-.53,1q.44,2.55.87,5.15c2.57,15.44,5.09,32,6.73,49.39l.06.62-.43.45a.87.87,0,0,0-.24.59c-.4,16.56-5.92,79.39-15.88,104.28a.89.89,0,0,0,.07.81c1.51,2.41,4.57,5.57,7.32,8.4.88.92,1.72,1.78,2.46,2.57l.47.51-.13.69c-1,4.94-2.07,10-3.22,15l-.25,1h-10.16a.9.9,0,0,0-.9.9s0,.05,0,.07a.89.89,0,0,0,.89.83h54.43a.89.89,0,0,0,.88-.71,180,180,0,0,0,2.92-19.94l0-.23.1-.21a.87.87,0,0,0,.05-.59l-.05-.21,0-.22c.19-2.11.36-4.39.52-7.18v-.11l0-.1a.67.67,0,0,0,0-.18l0-.21v-.11a355.93,355.93,0,0,0,.07-36.6c0-.89-.09-1.8-.14-2.71-.2-3.82-.44-7.69-.74-11.64l0-.41.2-.37a.32.32,0,0,1,.08-.1h0c3.32-8.49,6.06-21.16,8.16-37.65l0-.21.09-.2a.84.84,0,0,0,.09-.37,1.1,1.1,0,0,0,0-.18l0-.21,0-.21c.41-3.33.79-6.78,1.13-10.32.08-.78.15-1.57.22-2.36,1.68-18.17,2.48-38.61,2.31-58.2,0-4.83-.15-9.6-.31-14.27v-.19l0-.17a.88.88,0,0,0,0-.21,1.14,1.14,0,0,0,0-.26l0-.17v-.17q-.12-3.27-.28-6.44a.91.91,0,0,0-.9-.86H1478l-.11-1.24c-.48-5.8-1.46-12.31-1.8-14.33a.9.9,0,0,0-.89-.76h-27.42Zm-13.52,209.4-1.79-1.84a74.28,74.28,0,0,1-6-6.68l-.44-.59.26-.7c7.29-19.2,11.58-55,13.48-74.68l2.72.1,0,1.77c.08,5,.06,10.14-.06,15.32,0,.91-.06,1.84-.09,2.76l-.05,1.35a367.77,367.77,0,0,1-7.57,60.68Zm23.09-23.19,7.57-.45.34,0,1.61-.09,11.57-.68,0,1.46c0,1.43,0,2.86-.07,4.28l0,1.28-13,.46-1.64.05-1.9.07-5.46.19a.9.9,0,0,0-.62.28.93.93,0,0,0-.25.65.91.91,0,0,0,.93.87l4.62-.16,1.88-.07,2.44-.08,13-.46-.06,1.47c0,1-.09,2.07-.15,3.1l-.1,1.9-12.7.53-5.16.21-1.85.08-4.55.19a.89.89,0,0,0-.86.94.9.9,0,0,0,.93.86l3.8-.16,1.85-.08,5.84-.24,12.59-.53-.13,2c-.08,1.05-.15,2.11-.24,3.14l-.1,1.26-12.12-.07-7.77,0h-1.78l-6.42,0a.9.9,0,0,0-.9.9.92.92,0,0,0,.26.64.88.88,0,0,0,.63.26l5.86,0h1.78l8.34,0,12,.07-.15,1.49c-.12,1.15-.26,2.28-.4,3.4l-.16,1.34-11.24-.06-10.18-.06h-1.76l-9.45-.05a.91.91,0,0,0-.92.9.9.9,0,0,0,.89.9l9,0h1.76l10.65.06,11,.06-.3,2.07c-.09.62-.18,1.24-.28,1.85l-.18,1.16-10.25-.06-11.9-.07h-1.75l-12.69-.07a.91.91,0,0,0-.64,1.54.88.88,0,0,0,.64.26l12.3.07H1453l12.3.07,9.94,0-.3,1.61-.21,1.17-.22,1.09h-41.68l.39-1.66c6.54-28.53,10.13-55,11-81,.25-6.24.33-12.41.24-18.33-.07-4.1-.22-8.15-.44-12.08-1.17-26-4.79-50.79-8.3-71.88-.17-1-.33-2-.5-3l-.19-1.09,1-.41a83.2,83.2,0,0,1,12.38-3.75c2.1-.47,3.9-.79,5.26-1l.34-.05,1.14-.18.36,1.1c.23.7.46,1.42.68,2.13l.67,2.11-1.54.4-6,1.58a.9.9,0,0,0-.64,1.1.89.89,0,0,0,.87.67l.23,0,6.07-1.6,1.53-.4.57,1.86c.2.66.4,1.32.6,2l.39,1.34-1.29.34-7.27,1.92a.94.94,0,0,0-.55.41.93.93,0,0,0-.09.69.91.91,0,0,0,.87.67.85.85,0,0,0,.23,0l7.44-2,1.15-.31.37,1.29,1,3.54.6,2.42-.26.07-10.66,2.81a.92.92,0,0,0-.55.42.89.89,0,0,0-.09.68.91.91,0,0,0,.87.67.85.85,0,0,0,.23,0l10.88-2.87.32,1.36c.35,1.46.7,3,1.06,4.61l.29,1.28-12.13,3.2a.9.9,0,0,0,.23,1.77.91.91,0,0,0,.23,0l12-3.18.3,1.4c.34,1.54.67,3.14,1,4.82l.1.47.16.79-.16,0-11.34,3a.91.91,0,0,0-.64,1.1.9.9,0,0,0,.87.67.85.85,0,0,0,.23,0l10.88-2.87.52-.13.28,1.42c.24,1.22.49,2.48.74,3.77l.24,1.25-1.78.47-10,2.64a.91.91,0,0,0,.23,1.78l.23,0,9.58-2.53,2.12-.56.26,1.44c.3,1.61.61,3.27.91,5l.23,1.24-3.52.93-8,2.1a.89.89,0,0,0-.54.41.88.88,0,0,0-.1.69.91.91,0,0,0,.87.67.85.85,0,0,0,.23,0l7.51-2,3.83-1,.26,1.46q.38,2.13.75,4.35l.21,1.23-5,1.33-6.41,1.69a.9.9,0,0,0,.23,1.77l.23,0,6-1.57,5.35-1.41.93,5.68-6.28,1.66-7.28,1.92a.87.87,0,0,0-.55.42.85.85,0,0,0-.09.68.9.9,0,0,0,.86.67l.24,0,6.82-1.8,6.56-1.73,1,6.69-7.61,2-6.94,1.82a.91.91,0,0,0-.64,1.11.9.9,0,0,0,1.1.64l6.48-1.71,7.88-2.08.89,5.95-8.77,2.32-7,1.83a.92.92,0,0,0-.55.42.9.9,0,0,0,.78,1.35.85.85,0,0,0,.23,0l6.51-1.71,9-2.38,1.06,7.39-10.09,2.66-7,1.85a.91.91,0,0,0-.64,1.11.9.9,0,0,0,1.1.64l6.57-1.73,10.34-2.73.78,5.72-11.12,2.93-7.21,1.9a.9.9,0,0,0,.23,1.77.91.91,0,0,0,.23,0l6.75-1.77,11.27-3,.14,1.61c.07.75.34,4.09.34,4.09l-11.75,2.83-7.18,1.72a.91.91,0,0,0-.56.4.92.92,0,0,0-.1.69.89.89,0,0,0,.87.69l.21,0,6.76-1.62,11.9-2.86.12,1.6c.1,1.37.19,2.73.27,4.1l.1,1.55-12.39,1.8-6.3.91a.9.9,0,0,0,.13,1.79h.13l6-.87,12.5-1.81.12,2.32.12,2.2a1.09,1.09,0,0,0,0,.18l.06,1.26-1.16.14-11.65,1.46-7.16.9a.9.9,0,0,0,.11,1.79h.11l6.94-.86,10.3-1.29,2.25-.28.32,0,.06,1.48.12,3.75,0,1.24-5.06.61-2.15.25-5.87.7-6.89.83a.9.9,0,0,0-.79,1,.92.92,0,0,0,1,.79l6.69-.8,4.73-.57,2.12-.25,6.28-.75,0,1.51c0,1.7,0,3.38,0,5.05v1.29l-10.62.63-2,.12-.59,0-8,.48a.88.88,0,0,0-.62.3.89.89,0,0,0,.72,1.49Zm25.29-56.8q-1,5-2.1,9.24l-2.67-.17c-.42-3.13-.85-6.18-1.27-9.15l-.22-1.55H1483Zm1.65-9.39c-.25,1.65-.52,3.26-.8,4.83l-.2,1.13h-7.17l-.17-1.17-.94-6.36h9.53Zm1-7c-.11.84-.23,1.66-.34,2.49l-.17,1.17h-10.07l-.8-5.2h11.58ZM1487,415.5l0,.37c-.08.88-.17,1.76-.25,2.64l-.13,1.22h-11.69a.89.89,0,0,0-.3.06,1.16,1.16,0,0,0-.24.14l-1.33,1,1.59.54a.93.93,0,0,0,.24,0h11.55l-.17,1.52c-.13,1.18-.26,2.36-.4,3.52l-.15,1.2h-12.08l-1.14-7h0l-1.14-6.73h15.81Zm-32.38-95.57h19.78l.18,1.15c.37,2.51,1.29,8.91,1.63,14.33a.91.91,0,0,0,.9.85h11.58l.06,1.29c0,.69.17,3.9.17,3.9h-11.42a.9.9,0,0,0,0,1.8H1489l.14,4.68h-11.89a.9.9,0,1,0,0,1.8h11.93l0,1.34c0,1,.07,4.38.07,4.38h-12a.9.9,0,1,0,0,1.8h12.06l0,4.94h-12.08a.9.9,0,1,0,0,1.8h12.08v1.37l0,3.52v1.35h-12a.9.9,0,1,0,0,1.8h12l0,1.38c0,1.52-.06,3-.1,4.56l0,1.33h-13.67a.9.9,0,1,0,0,1.8h13.62l0,1.4-.12,3.26-.05,1.31h-14.71a.9.9,0,1,0,0,1.8h14.64l-.06,1.43c-.07,1.52-.15,3-.23,4.56l-.06,1.29h-14.8a.87.87,0,0,0-.73.4.86.86,0,0,0-.17.5.9.9,0,0,0,.9.9h14.7l-.09,1.44c-.08,1.35-.17,2.7-.26,4l-.09,1.27h-12.72a.9.9,0,1,0,0,1.8h12.59l-.11,1.47c-.07,1-.16,2-.24,3l-.1,1.25h-14.72l-.16,0-1.35.24-.24-1.35c-1.8-10.21-3.63-19.55-5.46-27.92l-.15-.67c-.53-2.4-1.07-4.73-1.6-7-.19-.82-.39-1.66-.58-2.46-3.62-14.8-6.07-20.8-6.44-21.67l-.07-.14a1.28,1.28,0,0,0-.14-.21,1.79,1.79,0,0,0-.15-.14l-.06,0-.21-.08a.85.85,0,0,0-.23,0h-.09l-.82.05-.72.07-1,.12-.22,0-5.87-25-1.45-6.13h9Z"/><path class="cls-2" d="M1395.63,46.72a13.7,13.7,0,0,0-6.82,1.81v-.14A9.84,9.84,0,0,0,1372,41.48a8.82,8.82,0,0,0-6.53-2.88H1365a13.44,13.44,0,0,0-24.4-4.7,17.52,17.52,0,0,0-25.71,15.5c0,.43,0,.86,0,1.29h-.42a13.07,13.07,0,1,0,12.84,15.5,17.58,17.58,0,0,0,5,.75,17.28,17.28,0,0,0,2.9-.25c3.24,5.24,14.42,9.09,27.71,9.09,9.6,0,18.09-2,23.29-5.09a13.78,13.78,0,1,0,9.28-24Z"/><path class="cls-2" d="M716.85,173.72c5.13-6.13-5.8-12.77-10.85-13-4.53-.21-10.67,1.58-13.33,5.64a12.73,12.73,0,0,0-5.47-1.19c-5.17,0-9.47,2.91-10.37,6.74-4.05,5.49-12.31,6.78-18.65,4.47-4.82-1.75-13.41-3.35-12.6,5.31.47,5,6.14,6.68,10.35,6.27,6-.58,11.61-3.55,17.64-4.29,11-1.35,21.79,1.93,32.59,3.33,7.47,1,25.8,2.4,27.63-8.57C735.38,168.91,721.64,172.4,716.85,173.72Z"/><path class="cls-2" d="M142.74,401.58a6.86,6.86,0,0,0-3.43.91v-.08a5,5,0,0,0-8.5-3.48,4.43,4.43,0,0,0-3.29-1.45h-.19A6.77,6.77,0,0,0,115,395.12a8.84,8.84,0,0,0-13,7.81c0,.22,0,.43,0,.65h-.21a6.59,6.59,0,1,0,6.47,7.82,8.93,8.93,0,0,0,2.55.37,8.81,8.81,0,0,0,1.46-.12c1.63,2.63,7.26,4.58,14,4.58,4.83,0,9.11-1,11.73-2.57a6.94,6.94,0,1,0,4.67-12.07Z"/><path class="cls-2" d="M666.92,110.61a13.77,13.77,0,0,0-20.59-12s0-.1,0-.15a9.85,9.85,0,0,0-16.87-6.9,8.8,8.8,0,0,0-6.53-2.88h-.38a13.44,13.44,0,0,0-24.4-4.7,17.52,17.52,0,0,0-25.71,15.49c0,.44,0,.87,0,1.3h-.42a13.07,13.07,0,1,0,12.84,15.5A17.59,17.59,0,0,0,590,117a17.25,17.25,0,0,0,2.89-.24c3.24,5.23,14.42,9.09,27.72,9.09,9.59,0,18.09-2,23.29-5.09a13.78,13.78,0,0,0,23-10.19Z"/><path class="cls-2" d="M1915.85,95.12a8.8,8.8,0,0,0-6.53-2.88h-.38a13.44,13.44,0,0,0-24.4-4.7,17.52,17.52,0,0,0-25.71,15.5c0,.43,0,.86.05,1.29h-.42a13.07,13.07,0,1,0,12.84,15.5,17.58,17.58,0,0,0,5,.75,17.28,17.28,0,0,0,2.9-.25c3.24,5.24,14.42,9.1,27.72,9.1a61.88,61.88,0,0,0,13-1.34V92.61A10,10,0,0,0,1915.85,95.12Z"/><path class="cls-2" d="M500.12,204.26a13.05,13.05,0,0,0-6.48,1.71s0-.09,0-.13a9.36,9.36,0,0,0-16-6.56,8.37,8.37,0,0,0-6.21-2.74h-.36a12.77,12.77,0,0,0-23.19-4.46,16.66,16.66,0,0,0-24.44,14.73c0,.41,0,.82.05,1.23h-.4a12.42,12.42,0,1,0,12.2,14.73,16.61,16.61,0,0,0,7.56.48c3.08,5,13.7,8.64,26.34,8.64,9.12,0,17.2-1.91,22.14-4.84a13.1,13.1,0,1,0,8.81-22.78Z"/><path class="cls-2" d="M1098.24,92.27a10.78,10.78,0,0,0-5.32,1.41s0-.07,0-.11a7.69,7.69,0,0,0-13.17-5.39,6.89,6.89,0,0,0-5.1-2.25h-.29a10.49,10.49,0,0,0-19-3.67,13.69,13.69,0,0,0-20.07,12.1c0,.34,0,.67,0,1H1035a10.2,10.2,0,1,0,10,12.1,13.62,13.62,0,0,0,6.2.39c2.53,4.08,11.26,7.1,21.64,7.1,7.49,0,14.12-1.57,18.18-4a10.75,10.75,0,1,0,7.23-18.71Z"/><path class="cls-2" d="M1637.38,305.92a4.35,4.35,0,0,0-2.16.57v0a3.12,3.12,0,0,0-5.34-2.19,2.79,2.79,0,0,0-2.07-.91h-.12a4.26,4.26,0,0,0-7.72-1.49,5.56,5.56,0,0,0-8.15,4.91c0,.14,0,.27,0,.41h-.13a4.14,4.14,0,1,0,4.06,4.91,5.68,5.68,0,0,0,1.6.23,5.52,5.52,0,0,0,.92-.08c1,1.66,4.57,2.88,8.78,2.88a15.2,15.2,0,0,0,7.37-1.61,4.36,4.36,0,1,0,2.94-7.59Z"/><path class="cls-2" d="M1617.75,295.9a4.36,4.36,0,1,0-2.16-8.15v-.05a3.12,3.12,0,0,0-5.34-2.18,2.79,2.79,0,0,0-2.07-.91h-.12a4.25,4.25,0,0,0-7.72-1.49,5.55,5.55,0,0,0-8.14,4.91c0,.14,0,.27,0,.41h-.13a4.14,4.14,0,1,0,4.06,4.91,5.68,5.68,0,0,0,1.6.24,5.52,5.52,0,0,0,.92-.08c1,1.66,4.57,2.88,8.78,2.88a15.28,15.28,0,0,0,7.37-1.61A4.39,4.39,0,0,0,1617.75,295.9Z"/><path class="cls-2" d="M151.3,207c5.13-6.13-5.81-12.76-10.86-13-4.53-.21-10.67,1.59-13.33,5.64a12.83,12.83,0,0,0-5.46-1.19c-5.18,0-9.48,2.91-10.37,6.75-4.06,5.48-12.32,6.77-18.66,4.47-4.82-1.76-13.41-3.36-12.6,5.31.47,5,6.14,6.68,10.35,6.27,6-.59,11.61-3.56,17.65-4.3,11-1.34,21.78,1.93,32.58,3.34,7.47,1,25.8,2.39,27.63-8.58C169.82,202.15,156.08,205.64,151.3,207Z"/><path class="cls-3" d="M1476,554.13h-55.21a.9.9,0,0,0-.87.76.25.25,0,0,1,0,.07v17.6h1.79V555.93h53.41v16.63h1.8V555A.9.9,0,0,0,1476,554.13Z"/><path class="cls-3" d="M1592.36,550.25a14.68,14.68,0,0,0,5.12-11.06c0-.39,0-.78,0-1.18l-.07-.77.63-.45a13.33,13.33,0,0,0,4.18-4.84,12,12,0,0,0,.71-1.7,12.13,12.13,0,0,0,.43-6.3,13.57,13.57,0,0,0-11-10.46l-1.08-.21-1.57-88.72,0-2.45-.47-26.39-1.57-89.08a.9.9,0,0,0-.9-.88H1505a.89.89,0,0,0-.89.88l-.15,7.42-2.3,115-.05,2.36-.6,29.82,0,2.36-2.18,109h1.81l2.14-107.22,0-2.36.6-29.82,0-2.36,2.34-116.74.13-6.5h5.88v1.35c0,1.72,0,3.44.06,5.15.44,30.79,3.61,60.76,8.83,82.92,4.06,17.28,11.33,38.35,22.86,40.59l1.1.22v14.37a.9.9,0,1,0,1.8,0V437.79l1.1-.22a10.88,10.88,0,0,0,2-.61c8.92-3.61,15.12-18.85,19.11-33.43l.51-1.9c.41-1.57.79-3.12,1.15-4.65,4.44-18.76,7.42-43,8.52-68.51.28-6.46.44-13,.47-19.56v-1.35h6.5l1.56,88.16.43,24.56,0,2.45,1.59,90.43-1.26.11c-.42,0-.83.08-1.24.15-.24,0-.47.11-.71.16s-.72.15-1.06.25l-.84.25-.34-.33-.3-.4a10.87,10.87,0,0,0-2.32-2.22,12.08,12.08,0,0,0-7.1-2.29c-6.39,0-11.59,4.85-11.59,10.81a10.48,10.48,0,0,0,4.74,8.73l1.19.81-.88,1.14a14.46,14.46,0,0,0-3,8.86c0,7.5,6,14,14,15.09l1.17.16v18.12h1.8V554.5l1.23-.13a16.89,16.89,0,0,0,5.35-1.45l1.89-.86.36,20.5h1.8l-.38-21.9Zm-76.19-242.69h60.49l-7.28,14.66-1-.17c-4.22-.74-8.18-1.27-12.06-1.62-2.29-.2-4.54-.34-6.8-.41-1.33,0-2.66-.07-4-.07a111,111,0,0,0-23.09,2.1l-1,.2-4.07-8.19-1.07-2.16-1.79-3.61c0-.24,0-.49,0-.73Zm53.28,17.65c0,1,0,2.05,0,3.08-.35,26-3.48,49.25-8.24,65.37-.18.63-.37,1.25-.56,1.85-3.14,10-6.94,17-11.09,19.8a7.13,7.13,0,0,1-4,1.33c-11.06,0-20.49-30-23.16-70.18-.12-1.82-.23-3.66-.32-5.52q-.39-7.69-.44-15.77V324l1.1-.22a109.63,109.63,0,0,1,22.82-2.07c1.34,0,2.66,0,4,.07,2.26.08,4.51.21,6.8.42,3.86.34,7.81.88,12,1.62l1.13.2Zm-.91,71.36c-.29,1.22-.58,2.41-.88,3.58-.17.65-.33,1.28-.5,1.91-4.89,18.31-11,29.68-17.64,32.94a9,9,0,0,1-4,1c-8.93,0-17.13-14-23.11-39.4-5.07-21.55-8.18-50-8.75-80l1.21-.3,1.37-.34.37.74,3.19,6.42v.32q0,5.61.18,11.1c.06,2.19.15,4.36.25,6.51.92,18.52,3.28,35.57,6.87,49.19,4.8,18.23,11.34,28.27,18.42,28.27a8.18,8.18,0,0,0,4-1.11c4.63-2.56,8.91-9.55,12.47-20.44.19-.6.38-1.22.57-1.84.48-1.56,1-3.17,1.4-4.88,4.39-16.69,6.94-38.51,7.26-61.88,0-1.65,0-3.31,0-5a1.11,1.11,0,0,0,0-.17l-.08-.45,3.66-7.38,2.58.63q-.11,6.22-.37,12.35C1575.94,353.86,1573,377.75,1568.54,396.57Zm20.89,153.66a15.35,15.35,0,0,1-8.35,2.44c-8,0-14.6-6-14.6-13.48a12.89,12.89,0,0,1,4.42-9.66.89.89,0,0,0-.29-1.51,9,9,0,0,1-6.15-8.37c0-5,4.39-9,9.79-9a10,10,0,0,1,8.79,5.05.89.89,0,0,0,.8.48.94.94,0,0,0,.36-.08,13.1,13.1,0,0,1,1.56-.56,14.71,14.71,0,0,1,1.46-.34l.54-.07h0l.17,0a12.79,12.79,0,0,1,1.52-.09,13.08,13.08,0,0,1,3.53.49,11.66,11.66,0,0,1,8.53,8.8,10.57,10.57,0,0,1-.1,4.52,10.28,10.28,0,0,1-.6,1.8,11.65,11.65,0,0,1-4.94,5.37.9.9,0,0,0-.44.94,12.34,12.34,0,0,1,.21,2.26,12.57,12.57,0,0,1-1.32,5.58A14,14,0,0,1,1589.43,550.23Z"/><path class="cls-3" d="M1908.76,552.12a16.34,16.34,0,0,0-1.7.11l-.8.09-.47-.66a16.14,16.14,0,0,0-7.57-5.85l-.89-.33V425.77a.9.9,0,0,0-.9-.9h-130V379.21a.9.9,0,0,0-.9-.9H1753V360.79a.9.9,0,0,0-.9-.9h-8.46V344.43a.91.91,0,0,0-.9-.9h-22.43a.9.9,0,0,0-.9.9v15.46h-8.31a.9.9,0,0,0-.9.9v17.52h-10.81a.9.9,0,0,0-.9.9V514h-40.8V459.76l.74-.38a30,30,0,0,0,0-53.43l-.74-.38v-11a.9.9,0,0,0-.9-.91H1651V383.8a.91.91,0,0,0-.9-.9h-4.33V366.6a.9.9,0,0,0-1.8,0v16.3h-4.33a.88.88,0,0,0-.29.06.9.9,0,0,0-.61.84v9.82h-5.86a.91.91,0,0,0-.9.91v11l-.74.38a30.42,30.42,0,0,0-6.5,4.49c-.32.29-.62.58-.93.88a30,30,0,0,0,7.43,48.06l.74.38v86.16l-7.1,6.29-1.27,1.13-21.69,19.22h2.72l20.24-17.94,1.28-1.13,7.06-6.27H1642L1633.61,561l-.92,1.5-6.19,10.09h2.11l5.39-8.79.91-1.49,9.25-15.06h12.31l13.75,12.19,1.28,1.13,13.56,12h2.71l-7-6.25h18.6a.88.88,0,0,0,.85-.89v-8.73a.9.9,0,0,0-.84-.89h-30.5l-6.4-5.68h36.89a.89.89,0,0,0,.85-.89v-8.73a.89.89,0,0,0-.84-.89h-41.63v-5.68h41.62a.9.9,0,0,0,.85-.89v-8.74a.89.89,0,0,0-.84-.88l-.13,0h-41.5v-7.58h65.9v56.79h1.8v-8.72l.84-.35a.9.9,0,0,0,.56-.83v-7.08a.89.89,0,0,0-.56-.83l-.84-.35v-7.24l.84-.35a.9.9,0,0,0,.56-.83V538.9a.89.89,0,0,0-.56-.83l-.84-.35v-7.24l.84-.35a.9.9,0,0,0,.56-.83v-7.08a.89.89,0,0,0-.56-.83l-.84-.35v-6.19l-.07-1,.91-.37a.91.91,0,0,0,.57-.83v-7.08a.9.9,0,1,0-1.8,0V514H1713.7v-8.43a.9.9,0,0,0-1.8,0V514h-11.59V380.11h64.3v44.76h-4.55a.9.9,0,0,0-.9.9V572.56h1.8V426.67h134.57V545l-1.46-.11c-.36,0-.72,0-1.08,0a14.89,14.89,0,0,0-3,.31l-.08,0a15.32,15.32,0,0,0-3.83,1.41,16.45,16.45,0,0,0-6.71,6.72l-1,1h-7.54a.9.9,0,0,0,0,1.8H1878l-.27,1.16-.12.51a18,18,0,0,0-.18,7.38,17.19,17.19,0,0,0,.63,2.47l.31.93-.79.59a13.35,13.35,0,0,0-3.1,3.33h2l1.58-1.38a10.93,10.93,0,0,1,2-1.35.91.91,0,0,0,.39-1.16,16.18,16.18,0,0,1-1.17-3.75,16.61,16.61,0,0,1,.44-7.77,16.09,16.09,0,0,1,1-2.47c.09-.18.19-.34.29-.51a14,14,0,0,1,1.26-2,14.25,14.25,0,0,1,4.72-4,13,13,0,0,1,6.13-1.53q.62,0,1.23.06a13,13,0,0,1,5,1.52,14.58,14.58,0,0,1,5.69,5.55.91.91,0,0,0,.78.44h.17a15.08,15.08,0,0,1,2.81-.3h.19a16,16,0,0,1,11,4.5V556a17.64,17.64,0,0,0-11-3.92Zm-236.71,5.46h26.33v6.93H1678.7l-5.93-5.25-1.27-1.13ZM1649.16,384.7v8.54h-8.66V384.7Zm-15.42,10.73h22.17v9.3l-1.78-.58a29.94,29.94,0,0,0-9.3-1.49,29.72,29.72,0,0,0-9.3,1.49l-1.79.58Zm9.38,80.19v69.8h-9.38V460.6l1.79.59a29.65,29.65,0,0,0,6.36,1.34l1.23.12Zm45.14,65.75h10.12v6.93h-38l-2.69-2.38v-4.55Zm2-16.21h8.13v6.93h-40.67v-6.93Zm-34.34,20.26h-11V462.69l1.3-.05a30,30,0,0,0,6.71-1.11c.4-.11.8-.21,1.2-.34l1.78-.58v84.81Zm1.72-87.64-.21.11c-.77.39-1.57.74-2.38,1.06a28.13,28.13,0,0,1-20.43,0c-.81-.32-1.61-.67-2.38-1.06a24,24,0,0,1-2.37-1.34,28.16,28.16,0,0,1,0-47.77c.76-.48,1.56-.93,2.37-1.34s1.57-.74,2.38-1.05a28.1,28.1,0,0,1,20.43,0c.81.31,1.61.67,2.38,1.05s1.61.86,2.38,1.34a28.18,28.18,0,0,1,0,47.77C1659.1,457,1658.36,457.41,1657.63,457.78Zm63.6-112.45h20.63v14.56h-20.63V345.33Zm20.86,33h-2.17V370a.9.9,0,0,0-1.8,0v8.31h-11.31V370a.9.9,0,1,0-1.8,0v8.31h-13V361.69h39.2v16.62Z"/><path class="cls-3" d="M1546.71,506.89l-.28-.27v-32a.89.89,0,0,0-1.77-.15.8.8,0,0,0,0,.15v98h1.8V507.17Z"/><path class="cls-3" d="M407.34,555.22V423.3a.85.85,0,0,0-.85-.84H385.67V358.38a.85.85,0,0,0-.85-.85H322.33a.85.85,0,0,0-.85.85v55.43h-5.66v-6a.85.85,0,0,0-1.7,0v6h-5.65v-6a.85.85,0,1,0-1.69,0v6h-5.09v-6a.85.85,0,1,0-1.69,0v6h-6.22v-6a.85.85,0,1,0-1.69,0v6h-5.65v-6a.85.85,0,1,0-1.7,0v6h-5.08v-6a.85.85,0,1,0-1.69,0v6H264a.86.86,0,0,0-.85.85v8.22l-9.8,5.68-.16.11-.12.1-.09.12-.08.13a.69.69,0,0,0,0,.19.52.52,0,0,0,0,.11v29.73a1.11,1.11,0,0,0,0,.21.84.84,0,0,0,.34.59l9.37,6.38V572.56h1.7V551.37h4.9v21.19h1.7V466.63h13.86v12.24h-6.43a.85.85,0,0,0,0,1.7h6.43v13h-6.43a.85.85,0,0,0,0,1.7h6.43v12.42h-6.43a.85.85,0,0,0,0,1.7h6.43v12h-6.43a.85.85,0,0,0,0,1.69h6.43v12.43h-6.43a.85.85,0,0,0,0,1.7h6.43v12.42h-6.43a.85.85,0,0,0,0,1.7h6.43v21.19h1.7V551.37H305.4v21.19h1.7V551.37h16.43v21.19h1.7V466.63h5.17V572.56h1.69V466.23l9.38-6.38a.87.87,0,0,0,.34-.59v-.08a2.15,2.15,0,0,0,0-.23V429.33s0-.08,0-.16l0-.08v0l-.05-.12-.09-.14-.11-.12-.1-.08-.09-.06-9.84-5.71v-8.22a.86.86,0,0,0-.85-.85h-7.51v-31H384v39.65H361.23a.85.85,0,0,0-.85.84V545.73l-1.2.07a16.38,16.38,0,0,0-2,.27c-8.11,1.72-13.41,10.2-11.81,18.91a18.52,18.52,0,0,0,.6,2.33l.29.88-.74.55a12.83,12.83,0,0,0-3.17,3.49l-.2.33h1.51l2.28-2a11.36,11.36,0,0,1,1.83-1.28.85.85,0,0,0,.37-1.09,15.9,15.9,0,0,1-1.1-3.53c-1.43-7.82,3.27-15.42,10.49-16.95a13.66,13.66,0,0,1,1.47-.21c.39,0,.76,0,1.14,0s.83,0,1.25.06a12.2,12.2,0,0,1,2.37.5,13.51,13.51,0,0,1,7.59,6.16.87.87,0,0,0,.73.42l.16,0a15.1,15.1,0,0,1,2.65-.28h.18a14.83,14.83,0,0,1,8.14,2.46l.22.13a16.45,16.45,0,0,1,2.31,1.92l.11.1.25.24a17.06,17.06,0,0,1,1.95,2.48,17.94,17.94,0,0,1,2.84,9.57v1.35h1.69v-1.37A19.35,19.35,0,0,0,387.3,558c-.34-.37-.73-.74-1.19-1.15a19.09,19.09,0,0,0-2-1.49c-.31-.2-.62-.39-.93-.56s-.7-.38-1.05-.55l-.74-.35v-2.27h14.09a.85.85,0,1,0,0-1.69H374.21a.84.84,0,0,0-.81.63l-.62,2.39-1.6-1.88a15,15,0,0,0-8.1-4.94l-1-.23V424.15h43.56V572.56h1.55V555.22Zm-152.78-125h11.07v28H254.56Zm9.16,34.74L256.47,460h9.34l2.78,4.94Zm5.49,84.73h-4.9V537.25h4.9Zm0-14.12h-4.9V523.12h4.9Zm0-14.12h-4.9v-12h4.9Zm0-13.75h-4.9V495.26h4.9Zm0-14.12h-4.9v-13h4.9Zm0-14.69h-4.9V466.63h4.9ZM275,464.94h-4.47L267.76,460h13.62l2.77,4.94Zm-7.67-6.78v-28H281.2v28H267.33Zm38.07,91.51H286.47V537.25H305.4Zm0-14.12H286.47V523.12H305.4Zm0-14.12H286.47v-12H305.4Zm0-13.75H286.47V495.26H305.4Zm0-14.12H286.47v-13H305.4Zm0-14.69H286.47V466.63H305.4Zm.38-13.93H286.09L283.32,460h25.23Zm-22.89-6.78v-28H309v28Zm40.64,91.51H307.1V537.25h16.43Zm0-14.12H307.1V523.12h16.43Zm0-14.12H307.1v-12h16.43Zm0-13.75H307.1V495.26h16.43Zm0-14.12H307.1v-13h16.43Zm0-14.69H307.1V466.63h16.43Zm2.21-17.2-1.83,3.27H307.73L310.5,460h14l1.28.05Zm-15.06-3.51v-28h16.43v28Zm20.3,6.78h-5.12l2.77-4.94h9.61Zm9.16-6.78H328.81v-28h11.33ZM324.7,415.51h5.13v7.86a.85.85,0,0,0,.43.73l7.58,4.4h-81l7.58-4.4a.84.84,0,0,0,.42-.73v-7.86H324.7Zm-1.53-56.28H384v7.4h-60.8Zm60,21.88h-60V368.33H384v12.78Z"/><path class="cls-3" d="M239.54,467.35a.81.81,0,0,0-.47-.16H229V457.9a.85.85,0,0,0-.85-.85h-9.72v-9.28a.83.83,0,0,0-.26-.61l-.34-.33,0-.47a26.91,26.91,0,0,0-1.72-7.44,20.93,20.93,0,0,0-2-4c-2.17-3.26-5-5.29-8.06-5.84l-1.06-.19V407.48a.85.85,0,0,0-1.69,0V429l-1,.22a12.69,12.69,0,0,0-7.73,5.77,24.56,24.56,0,0,0-3.74,11.12l-.06.64-.56.33a.86.86,0,0,0-.42.73v9.28h-9.1a.85.85,0,0,0-.85.85v9.29h-9.1a.85.85,0,0,0-.85.84V572.56h1.7V468.88h30.67l.13,0a8.47,8.47,0,0,0,3.92,0l.13,0h31.86V572.56h1.69V468A.83.83,0,0,0,239.54,467.35Zm-47-21.88c1.13-8.6,6.07-14.84,11.75-14.84,4.58,0,8.67,4.06,10.68,10.14a25,25,0,0,1,1.07,4.7l.19,1.45H192.33Zm-1.11,3.15h25.35v8.43H191.41Zm35.92,18.57H181.46v-8.44h45.87Z"/><path class="cls-3" d="M158.92,469.43h-3.13v-6.9a.85.85,0,0,0-.84-.85h-15.8v-6.36a.85.85,0,0,0-.85-.85h-4.54V433.94a.23.23,0,1,0-.45,0v20.53h-4.54a.85.85,0,0,0-.85.85v14.11h-2.44a.85.85,0,0,0-.85.84V499.9H83a.85.85,0,0,0-.84.85v12H77a.85.85,0,0,0-.85.84v23.28H-.55v1.7H82.28v33.94H84V537.77a.86.86,0,0,0-.85-.85H77.8V514.49h46.83v58.07h1.7V471.12h31.74V572.56h1.7V470.27A.85.85,0,0,0,158.92,469.43ZM124.41,512.5H83.83V501.6h40.58v10.9Zm5.21-56.33h7.83v5.51h-7.83Zm24.48,13.22H129.62v-6H154.1Z"/><path class="cls-3" d="M62.73,561.86a.85.85,0,0,0,.85-.85V549.29a.85.85,0,0,0-.85-.85H-.55v1.7H61.88v10H-.55v1.7H62.73Z"/></svg>